<?xml version="1.0" encoding="UTF-8"?><svg id="Layer_1" xmlns="http://www.w3.org/2000/svg" viewBox="0 0 130 225"><defs><style>.cls-1{fill:#231f20;}</style></defs><path class="cls-1" d="M13.99,112.63c1.57,1.41,2.92,3.43,4.77,4.09,2.78,1,5.92,1.05,9.34,1.57-.81,5.32-2.13,10.49-2.24,15.69-.13,6.21-.2,12.7,1.41,18.62,5.83,21.44,6.56,42.68-.9,63.78-1.13,3.19-4.1,5.76-6.22,8.61h-6.12c-5.76-4.92-6.31-6.86-3.81-14.3,5.41-16.1,5.4-32.38,1.47-48.72-.43-1.78-2.39-3.18-3.57-4.8-2.39-3.26-6.12-6.28-6.84-9.88-2.71-13.51-1-26.85,4.36-39.6,2.58-6.15,7.17-10.01,14.32-10.11,4.67-.07,7.42,2.29,9.14,7.27l-6.43-.9c-7.2,.49-8.39,1.68-8.69,8.68Z"/><path class="cls-1" d="M94.18,178.79l2.46,4.11c-1.33,2.26-5.78,3.01,.16,6.54,5.13,3.05,9.48,2.06,14.17,2.55,4.35,.46,8.8,.1,13.72,.1v26.08c2.45,1.28,7.28,.58,4.45,5.54H36.2l-.28-4.39,6.51-.5v-26.39c1.89-.14,3.36-.67,4.47-.26,4.74,1.75,6.87-3.22,10.66-3.77l-.86-5.24-1.37,.04c.79-1.44,1.58-2.89,2.34-4.28,6.35,1.19,6.79,.77,4.88-4.82,1.39-.81,2.83-1.65,4.19-2.45,4.71,4.11,5.38,3.95,6.64-1.57h4.98c1.94,5.51,2.65,5.71,6.48,1.44,1.47,.8,3.03,1.64,4.51,2.44-1.55,5.87-1.1,6.31,4.83,4.83Zm-24.28,12.94h12.53c-.68-3.96-2.62-6.06-6.38-6.04-3.7,.02-5.88,1.82-6.15,6.04Z"/><path class="cls-1" d="M15.9,113.4c.28-6.66,1.42-7.79,8.27-8.26,4.77,1.19,9.54,2.38,15.64,3.9-.75-3.53-1.2-5.69-1.66-7.84-.28-3.41-1.04-6.87-.66-10.2,.23-1.97,1.99-4.97,3.55-5.29,1.8-.38,4.13,1.67,6.23,2.66,1.27,8.25,2.68,16.48,3.74,24.75,.61,4.74-1.55,6.77-6.53,6.25-7.81-.82-15.61-1.81-23.36-3.05-1.85-.3-3.48-1.9-5.21-2.91Z"/><path class="cls-1" d="M46.92,86.34c-2.2-1.04-4.65-3.19-6.54-2.79-1.63,.34-3.49,3.48-3.73,5.56-.4,3.5,.4,7.14,.69,10.71-.1,3.92-2.03,2.86-4.14,1.5-7.05-4.52-8.89-14.15-4.02-21.14,4.85-6.96,14.6-8.73,21.55-3.91,7.03,4.87,8.75,14.46,3.81,21.23-.87,1.19-1.78,2.36-2.68,3.53l-1.23-.52c-.61-3.5-1.11-7.03-1.88-10.5-.29-1.3-1.21-2.46-1.84-3.68Z"/><path class="cls-1" d="M55.65,136.39c1.84,3.57,3.68,7.15,5.66,11,1.42-1.12,2.8-2.2,4.71-3.71l4.27,14.87-.77,.28-4.94-11.25-4.1,3.7c-2.45-4.75-4.72-9.16-6.99-13.57l2.16-1.32Z"/><path class="cls-1" d="M75.54,157.94l1.04-9.56-4.66,.37c.39-4.47,.75-8.57,1.1-12.67l2.09,.14c-.27,3.23-.53,6.46-.84,10.15l5.18-.46c-1.19,4.51-2.26,8.56-3.32,12.62l-.59-.59Z"/><path class="cls-1" d="M57.24,154.26c2.68,3,5.12,5.72,7.55,8.45l-.57,.62c-2.06-1.76-4.12-3.52-6.56-5.6l-2.24,4c-3.45-2.74-6.71-5.32-9.96-7.91l1.22-1.64c2.52,2,5.05,4,7.85,6.22,.81-1.24,1.59-2.42,2.71-4.14Z"/><path class="cls-1" d="M36.51,46.73c-.3-.78-.54-1.65-.71-2.62-.17-.97-.25-1.89-.25-2.76,0-1.37,.14-2.63,.41-3.76,.27-1.13,.68-2.2,1.23-3.2,.55-1,1.23-1.96,2.05-2.87,.82-.91,1.78-1.81,2.87-2.71,1.15-.96,2.16-1.84,3.03-2.67,.87-.82,1.6-1.64,2.21-2.46,.61-.82,1.06-1.67,1.37-2.55,.3-.88,.46-1.86,.46-2.93,0-.93-.17-1.78-.5-2.58-.33-.79-.81-1.47-1.44-2.04-.62-.57-1.38-1.01-2.28-1.34-.9-.33-1.89-.49-2.98-.49-2.37,0-4.83,.49-7.38,1.46-2.55,.97-4.97,2.44-7.24,4.41V4.12c2.34-1.37,4.89-2.4,7.65-3.09,2.76-.69,5.62-1.03,8.56-1.03s5.45,.31,7.88,.92c2.43,.61,4.55,1.58,6.36,2.89,1.81,1.31,3.22,3,4.24,5.04,1.02,2.05,1.53,4.5,1.53,7.37,0,1.82-.21,3.47-.64,4.95-.43,1.48-1.05,2.88-1.87,4.19-.82,1.31-1.84,2.58-3.05,3.79-1.21,1.21-2.61,2.46-4.19,3.74-1.06,.87-2,1.67-2.8,2.42-.81,.75-1.47,1.49-2,2.22-.53,.73-.93,1.51-1.21,2.33-.27,.82-.41,1.76-.41,2.8,0,.72,.1,1.45,.3,2.2,.2,.75,.46,1.37,.8,1.88h-11.98Zm6.65,19.62c-2.43,0-4.45-.72-6.06-2.15-1.61-1.49-2.41-3.26-2.41-5.29s.8-3.84,2.41-5.24c1.61-1.4,3.63-2.11,6.06-2.11s4.39,.7,5.97,2.11c1.58,1.37,2.37,3.12,2.37,5.24s-.77,3.93-2.32,5.33c-1.58,1.4-3.58,2.11-6.01,2.11Z"/></svg>