<svg xmlns="http://www.w3.org/2000/svg" xmlns:xlink="http://www.w3.org/1999/xlink" width="3935.104" height="4222.232" viewBox="0 0 3935.104 4222.232"><defs><clipPath id="a"><rect width="3935.104" height="4222.232" transform="translate(0 -0.002)" fill="none"/></clipPath></defs><g transform="translate(0 0.002)" opacity="0.6"><g clip-path="url(#a)"><path d="M2075.613,0l44.347,48.678,13.018,14.288a207.166,207.166,0,0,1,18.856,24.657q22.506,35.393,7.621,75.464a97.228,97.228,0,0,1-26.017,37.949q-25.713,23.242-58.795,25.524t-60.35-20.125a262.262,262.262,0,0,1-29.442-28.358l-7.45-8.178-40.039-43.949,5.814-5.3,4.074,3.681q7.8,6.78,13.543,7.047t14.085-6.609l7.569-6.537,74.4-67.777,8.582-8q9.94-8.877,11.927-15.015,3.057-8.915-4.251-18.125L2069.8,5.3Zm-64.471,152.5-8.671,7.9q-7.08,6.087-6.441,10.645t6.66,10.973q35.891,39.793,98.268-17.033a169.6,169.6,0,0,0,22.784-25.266q28.92-39.511,1.271-69.862-6.034-6.225-10.44-6.807t-10.8,5.064l-6.8,6.195Z" fill="#333"/><path d="M2153.694,201.7a80.726,80.726,0,0,1,15.764-8.23A96.32,96.32,0,0,1,2197.642,186a89.983,89.983,0,0,1,29.843,1.484,100.506,100.506,0,0,1,26.238,10,103.964,103.964,0,0,1,26.663,21.151q27.828,30.546,25.76,69.94t-32.331,67.142q-24.646,22.632-56.517,26.243a83.105,83.105,0,0,1-27.87-1.3q-31.14-6.074-54.48-31.693a105.1,105.1,0,0,1-18.428-27.75q-13.548-29.316-5.992-59.821,6.991-28.548,32.2-51.153a70.613,70.613,0,0,1,10.966-8.548m21.711,44.416a204.73,204.73,0,0,0-24.81,26.209q-33.261,41.479-7.413,70.048a42.663,42.663,0,0,0,12.944,9.755,35.338,35.338,0,0,0,14.831,3.71q28.919,1.063,69.59-35.448,23.46-21.554,34.288-43.319,15.612-31.356-2.862-52.03-16.788-18.429-42.471-11.98-19.47,4.755-40.641,21.7a171.6,171.6,0,0,0-13.456,11.358" fill="#333"/><path d="M2415.76,373.363l-5.814,5.3q-9.446-9.971-16.873-10.5t-17.571,8.522l-44.244,40.308,51.894,2.134,29.3.892q17.619.537,21.768-3.421l1.415-2.01.571-2.144q.248-3.293-4.206-8.971l-7.515-8.843,5.814-5.3,52.966,58.139-5.814,5.3q-12.263-12.271-23.6-16.007-15.887-5.364-42.634-6.42l-38.908-1.339-19.838,132.218a13.129,13.129,0,0,0,2.513,10.873l2.039,2.832-5.814,5.3-62.392-68.485,5.814-5.3,6.678,6.539,4.344,3.976q4.433,4.078,7.973,1.032,2.945-2.5,5-14.109l11.9-77.2-9.416-.439L2285.142,459a38.586,38.586,0,0,0-5.956,6.328q-8.795,10.536-1.286,21.549l5.423,7.14-5.813,5.3-63.291-69.47,5.814-5.3q8.8,9.657,15.453,10.627,8.337,1.239,17.316-7.12l92.627-84.386q10.166-9.624,10.186-17.124t-8.959-17.355l5.814-5.3Z" fill="#333"/><path d="M2365.625,582.773a11.2,11.2,0,0,0,3.786,1.78l3.839.65a31.082,31.082,0,0,0,7.011-.617l7.466-2.294,168.26-61.144,5.117,5.617-74.9,167.777q-3.445,7.1-3.061,13.067l.767,3.811,1.608,3.943,2.577,3.422-5.814,5.3-61.045-67.008,5.814-5.3q10.3,11.711,16.449,11.523l2.85-.434a12.886,12.886,0,0,0,3.487-1.912,33.805,33.805,0,0,0,6.061-8.589l12.187-24.627-41.565-45.624-26.146,10.295a22.087,22.087,0,0,0-7.858,4.636q-7.837,8.223,7.334,24.874l-5.814,5.3-38.781-42.57,5.814-5.3Zm73.567-5.351,34.652,38.036,28.843-62.161Z" fill="#333"/><path d="M2663.892,645.726l-20.744,149.633,61.094-55.659q10.052-9.158,10.7-16.959l-.3-3.694a22.722,22.722,0,0,0-1.817-5.557,55.6,55.6,0,0,0-6.269-9.256l5.814-5.3,41.027,45.032-5.814,5.3q-8.09-6.7-13.092-8.63l-4.2-1.044a11.706,11.706,0,0,0-7.826,1.9q-7.541,3.8-10.413,6.781l-116.572,106.2-5.207-5.716,27.782-191.389-80.309,73.164q-15.2,14.2-12.268,24.34l1.5,4.222a41.4,41.4,0,0,0,6.089,9.058l-5.813,5.3-41.027-45.032,5.814-5.3q10.466,10.3,18.894,9.655,7.388-.6,19-10.816l90.459-82.411q3.066-15.235,2.371-22.536l-.7-3.335-1.447-3.37-1.958-2.544,5.814-5.3Z" fill="#333"/><path d="M2626.683,869.325a11.2,11.2,0,0,0,3.786,1.78l3.838.65a31.208,31.208,0,0,0,7.012-.617l7.466-2.295,168.26-61.143,5.117,5.616-74.9,167.777q-3.445,7.1-3.061,13.068l.767,3.81,1.608,3.943,2.577,3.423-5.814,5.3-61.045-67.006,5.814-5.3q10.305,11.712,16.448,11.523l2.851-.433a12.894,12.894,0,0,0,3.487-1.914,33.789,33.789,0,0,0,6.061-8.587l12.187-24.627-41.565-45.624-26.146,10.294a22.071,22.071,0,0,0-7.858,4.636q-7.838,8.223,7.334,24.875l-5.814,5.3L2616.311,871.2l5.813-5.3Zm73.567-5.351L2734.9,902.01l28.843-62.162Z" fill="#333"/><path d="M2753.281,1009.869a65.643,65.643,0,0,0,8.24,7.461,12.668,12.668,0,0,0,5.158,2.694l3.848.462,3.03-.236a19.261,19.261,0,0,0,5.19-2.024,38.862,38.862,0,0,0,7.7-5.208l91.937-83.758,4.765-5.062q5.7-6.813,5.655-12.005l-.31-3.505q-1.5-6.393-8.586-14.176l5.814-5.3,65.084,71.442a214.551,214.551,0,0,1,14.806,18.428,66.022,66.022,0,0,1,9.072,18.965,47.8,47.8,0,0,1,1.954,19.859,42.071,42.071,0,0,1-5.668,16.343,48.729,48.729,0,0,1-9.206,11.272,46.943,46.943,0,0,1-12.365,8.2,39.086,39.086,0,0,1-11.672,3.42q-15.771,2.284-30.574-6.047l-8.891-5.6-19.276,87.706q-1.911,8.594.938,14.292l2.633,4.275-5.814,5.3-38.154-41.88,23.331-101.86-4.309-4.73-37.149,33.844a59.018,59.018,0,0,0-10.049,11.138,12.282,12.282,0,0,0-2.29,4.613l-.607,2.9a10.41,10.41,0,0,0,.351,4.64,13.958,13.958,0,0,0,1.874,4.333,44.734,44.734,0,0,0,6.834,9.283l-5.815,5.3-63.289-69.471Zm112.113-8.368q14.19,15.381,23.432,19.585,14.406,6.711,29.391-2.972a74.825,74.825,0,0,0,10.178-7.83l7.022-6.939a50.206,50.206,0,0,0,7.681-10.965q8.277-15.656-7.531-32.811-6.93-7.209-11.825-7.438l-2.09.28a16.318,16.318,0,0,0-6.792,4.024Z" fill="#333"/><path d="M3119.4,1145.713l-42.569,38.782-5.3-5.814q16.53-20.649,16.345-35.9t-17.379-35.109l-107.408,97.852q-15.741,13.8-5.736,27.947l5.1,5.993-5.814,5.3-63.29-69.471,5.814-5.3,6.57,6.816q11.892,10.085,27.282-4.3l107.408-97.852q-9.087-9.576-15.77-13.945a36.528,36.528,0,0,0-12.89-4.847q-19.518-4.4-41.944,11.164l-5.3-5.814,42.569-38.782Z" fill="#333"/><path d="M3126.578,1153.6l44.347,48.679,13.018,14.288a207.018,207.018,0,0,1,18.856,24.657q22.506,35.392,7.621,75.465a97.219,97.219,0,0,1-26.017,37.948q-25.713,23.242-58.8,25.524t-60.35-20.125a262.164,262.164,0,0,1-29.442-28.358l-7.45-8.178-40.039-43.949,5.814-5.3,4.074,3.681q7.8,6.78,13.543,7.047t14.085-6.609l7.569-6.537,74.4-67.778,8.582-8q9.94-8.879,11.927-15.015,3.057-8.914-4.251-18.125l-3.3-4.023Zm-64.471,152.5-8.671,7.9q-7.08,6.087-6.441,10.646t6.661,10.972q35.889,39.795,98.267-17.033a169.6,169.6,0,0,0,22.784-25.266q28.92-39.511,1.271-69.862-6.034-6.225-10.44-6.807t-10.8,5.064l-6.8,6.194Z" fill="#333"/><path d="M3204.659,1355.292a80.785,80.785,0,0,1,15.764-8.23,96.338,96.338,0,0,1,28.184-7.463,89.981,89.981,0,0,1,29.843,1.484,100.507,100.507,0,0,1,26.238,10,103.944,103.944,0,0,1,26.663,21.151q27.828,30.546,25.759,69.94t-32.33,67.142q-24.646,22.631-56.517,26.243a83.129,83.129,0,0,1-27.87-1.3q-31.14-6.074-54.48-31.693a105.1,105.1,0,0,1-18.428-27.75q-13.548-29.316-5.992-59.821,6.992-28.548,32.2-51.153a70.669,70.669,0,0,1,10.966-8.549m21.711,44.417a204.634,204.634,0,0,0-24.81,26.209q-33.261,41.48-7.413,70.048a42.675,42.675,0,0,0,12.944,9.755,35.334,35.334,0,0,0,14.831,3.71q28.918,1.063,69.589-35.448,23.462-21.554,34.289-43.319,15.612-31.356-2.862-52.031-16.788-18.428-42.471-11.979-19.47,4.755-40.641,21.7a171.653,171.653,0,0,0-13.456,11.358" fill="#333"/><path d="M3466.726,1526.961l-5.815,5.3q-9.444-9.971-16.872-10.505t-17.571,8.523l-44.245,40.308,51.894,2.134,29.3.892q17.619.537,21.768-3.421l1.415-2.01.572-2.145q.245-3.291-4.207-8.97l-7.515-8.843,5.815-5.3,52.965,58.139-5.814,5.3q-12.262-12.272-23.6-16.007-15.888-5.364-42.634-6.42l-38.91-1.339-19.837,132.218a13.132,13.132,0,0,0,2.513,10.873l2.039,2.832-5.814,5.3-62.392-68.485,5.815-5.3,6.678,6.539,4.344,3.977q4.431,4.076,7.971,1.031,2.946-2.505,5-14.109l11.9-77.2-9.416-.439-35.967,32.767a38.6,38.6,0,0,0-5.956,6.328q-8.793,10.536-1.286,21.549l5.424,7.14-5.815,5.3-63.289-69.471,5.814-5.3q8.8,9.657,15.452,10.627,8.339,1.239,17.317-7.12l92.627-84.386q10.164-9.624,10.186-17.124t-8.959-17.355l5.814-5.3Z" fill="#333"/><path d="M3416.59,1736.371a11.2,11.2,0,0,0,3.786,1.78l3.838.65a31.2,31.2,0,0,0,7.012-.617l7.466-2.295,168.26-61.143,5.117,5.616-74.9,167.777q-3.445,7.1-3.061,13.068l.766,3.81,1.609,3.943,2.577,3.423-5.814,5.3-61.045-67.006,5.814-5.3q10.305,11.712,16.448,11.523l2.851-.433a12.894,12.894,0,0,0,3.487-1.914,33.79,33.79,0,0,0,6.061-8.587l12.187-24.627-41.565-45.624-26.146,10.3a22.068,22.068,0,0,0-7.858,4.635q-7.838,8.223,7.334,24.875l-5.814,5.3-38.781-42.569,5.813-5.3Zm73.567-5.351,34.652,38.036,28.843-62.162Z" fill="#333"/><path d="M3714.857,1799.324l-20.743,149.632,61.094-55.659q10.051-9.156,10.7-16.958l-.3-3.694a22.839,22.839,0,0,0-1.817-5.558,55.648,55.648,0,0,0-6.269-9.255l5.814-5.3,41.026,45.032-5.814,5.3q-8.088-6.7-13.092-8.63l-4.2-1.045a11.72,11.72,0,0,0-7.826,1.9q-7.539,3.8-10.412,6.782l-116.572,106.2-5.208-5.716,27.783-191.39-80.31,73.165q-15.193,14.2-12.268,24.339l1.5,4.223a41.419,41.419,0,0,0,6.088,9.058l-5.813,5.3-41.026-45.032,5.814-5.3q10.464,10.3,18.894,9.655,7.386-.6,19-10.816l90.459-82.411q3.067-15.235,2.37-22.536l-.694-3.335-1.447-3.37-1.957-2.545,5.813-5.3Z" fill="#333"/><path d="M1706.462,345.684a11.2,11.2,0,0,0,3.786,1.78l3.839.65a31.193,31.193,0,0,0,7.011-.617l7.467-2.3,168.259-61.143,5.117,5.616-74.9,167.777q-3.445,7.1-3.061,13.068l.767,3.81,1.608,3.943,2.577,3.423-5.814,5.3-61.045-67.006,5.814-5.3q10.3,11.712,16.449,11.523l2.851-.433a12.928,12.928,0,0,0,3.486-1.913,33.813,33.813,0,0,0,6.061-8.588l12.187-24.627-41.565-45.624-26.146,10.295a22.057,22.057,0,0,0-7.858,4.636q-7.837,8.221,7.334,24.874l-5.814,5.3L1696.09,347.56l5.814-5.3Zm73.567-5.351,34.652,38.036,28.843-62.162Z" fill="#333"/><path d="M1833.06,486.229a65.771,65.771,0,0,0,8.239,7.46,12.679,12.679,0,0,0,5.159,2.694l3.848.462,3.03-.236a19.286,19.286,0,0,0,5.19-2.024,38.773,38.773,0,0,0,7.7-5.208l91.937-83.758,4.765-5.062q5.7-6.813,5.654-12l-.308-3.506q-1.5-6.393-8.588-14.176l5.814-5.3,65.085,71.442a214.4,214.4,0,0,1,14.806,18.428,66.066,66.066,0,0,1,9.072,18.965,47.789,47.789,0,0,1,1.954,19.859,42.074,42.074,0,0,1-5.669,16.343,48.706,48.706,0,0,1-9.205,11.272,46.942,46.942,0,0,1-12.365,8.2,39.082,39.082,0,0,1-11.672,3.42q-15.771,2.285-30.574-6.047l-8.892-5.6-19.275,87.706q-1.909,8.594.939,14.292l2.632,4.275-5.814,5.3-38.154-41.88,23.332-101.86-4.31-4.73L1900.238,518.8a59.013,59.013,0,0,0-10.049,11.138,12.281,12.281,0,0,0-2.29,4.613l-.607,2.9a10.423,10.423,0,0,0,.35,4.64,14,14,0,0,0,1.874,4.333,44.814,44.814,0,0,0,6.834,9.283l-5.814,5.3-63.29-69.471Zm112.112-8.369q14.19,15.381,23.433,19.585,14.406,6.711,29.39-2.972a74.7,74.7,0,0,0,10.178-7.83l7.023-6.938a50.235,50.235,0,0,0,7.681-10.966q8.279-15.656-7.531-32.81-6.931-7.21-11.825-7.439l-2.09.28a16.33,16.33,0,0,0-6.792,4.024Z" fill="#333"/><path d="M2199.175,622.072l-42.569,38.782-5.3-5.814q16.528-20.649,16.344-35.9t-17.379-35.109l-107.407,97.852q-15.741,13.8-5.736,27.947l5.1,5.993-5.814,5.3-63.29-69.47,5.814-5.3,6.57,6.816q11.892,10.084,27.282-4.3L2120.2,551.023q-9.087-9.576-15.77-13.945a36.505,36.505,0,0,0-12.89-4.846q-19.518-4.4-41.944,11.163l-5.3-5.814,42.569-38.782Z" fill="#333"/><path d="M2206.356,629.955l44.348,48.679,13.017,14.288a206.974,206.974,0,0,1,18.857,24.657q22.506,35.393,7.621,75.464a97.225,97.225,0,0,1-26.017,37.949q-25.713,23.242-58.795,25.524t-60.35-20.125a262.163,262.163,0,0,1-29.442-28.358l-7.45-8.178-40.039-43.949,5.814-5.3,4.074,3.681q7.8,6.78,13.543,7.047t14.085-6.609l7.569-6.537,74.4-67.778,8.582-8q9.942-8.879,11.928-15.015,3.057-8.916-4.251-18.125l-3.3-4.023Zm-64.47,152.5-8.672,7.9q-7.078,6.087-6.44,10.645t6.66,10.973q35.891,39.793,98.268-17.033a169.6,169.6,0,0,0,22.784-25.266q28.92-39.513,1.271-69.862-6.036-6.225-10.44-6.807t-10.8,5.064l-6.8,6.194Z" fill="#333"/><path d="M2284.438,831.652a80.788,80.788,0,0,1,15.764-8.232,96.377,96.377,0,0,1,28.184-7.462,89.984,89.984,0,0,1,29.843,1.483,100.544,100.544,0,0,1,26.238,10,103.965,103.965,0,0,1,26.663,21.152q27.828,30.546,25.76,69.94t-32.331,67.141q-24.647,22.633-56.517,26.244a83.1,83.1,0,0,1-27.87-1.3q-31.14-6.074-54.48-31.692a105.133,105.133,0,0,1-18.428-27.75q-13.548-29.317-5.992-59.821,6.992-28.548,32.2-51.154a70.549,70.549,0,0,1,10.966-8.547m21.711,44.415a204.713,204.713,0,0,0-24.81,26.21q-33.261,41.478-7.413,70.047a42.664,42.664,0,0,0,12.944,9.756,35.337,35.337,0,0,0,14.831,3.71q28.919,1.064,69.59-35.448,23.46-21.555,34.288-43.32,15.612-31.356-2.862-52.03-16.788-18.428-42.471-11.98-19.47,4.756-40.641,21.7a171.857,171.857,0,0,0-13.456,11.358" fill="#333"/><path d="M2546.5,1003.32l-5.814,5.3q-9.445-9.971-16.873-10.505t-17.571,8.523L2462,1046.943l51.894,2.134,29.3.892q17.619.537,21.768-3.421l1.415-2.01.571-2.145q.247-3.291-4.206-8.97l-7.515-8.843,5.814-5.3,52.966,58.139-5.814,5.3q-12.263-12.273-23.6-16.007-15.887-5.364-42.634-6.42l-38.908-1.339-19.838,132.218a13.129,13.129,0,0,0,2.513,10.873l2.039,2.832-5.814,5.3-62.392-68.485,5.814-5.3,6.678,6.539,4.344,3.976q4.433,4.077,7.973,1.032,2.944-2.505,5-14.109l11.9-77.2-9.416-.439-35.967,32.767a38.545,38.545,0,0,0-5.956,6.328q-8.795,10.536-1.286,21.549l5.423,7.14-5.813,5.3-63.291-69.471,5.814-5.3q8.8,9.657,15.453,10.627,8.337,1.238,17.316-7.12l92.627-84.386q10.165-9.624,10.186-17.124t-8.959-17.355l5.814-5.3Z" fill="#333"/><path d="M2496.369,1212.73a11.2,11.2,0,0,0,3.786,1.78l3.839.65a31.136,31.136,0,0,0,7.011-.617l7.466-2.294,168.26-61.144,5.117,5.616-74.9,167.777q-3.446,7.1-3.061,13.068l.767,3.81,1.608,3.943,2.577,3.423-5.814,5.3-61.045-67.006,5.814-5.3q10.305,11.712,16.449,11.523l2.85-.433a12.922,12.922,0,0,0,3.487-1.913,33.808,33.808,0,0,0,6.061-8.588l12.187-24.627-41.565-45.624-26.146,10.3a22.055,22.055,0,0,0-7.858,4.636q-7.838,8.221,7.334,24.874l-5.814,5.3L2486,1214.606l5.814-5.3Zm73.567-5.351,34.652,38.036,28.843-62.161Z" fill="#333"/><path d="M2794.636,1275.682l-20.743,149.633,61.094-55.659q10.051-9.156,10.7-16.958l-.3-3.695a22.84,22.84,0,0,0-1.817-5.557,55.7,55.7,0,0,0-6.269-9.256l5.814-5.3,41.026,45.032-5.814,5.3q-8.088-6.7-13.092-8.629l-4.2-1.045a11.713,11.713,0,0,0-7.826,1.9q-7.539,3.8-10.412,6.781l-116.572,106.2-5.207-5.715,27.782-191.391-80.31,73.166q-15.193,14.2-12.268,24.339l1.5,4.223a41.358,41.358,0,0,0,6.088,9.057l-5.813,5.3-41.026-45.031,5.814-5.3q10.466,10.3,18.894,9.655,7.386-.6,19-10.815l90.459-82.411q3.068-15.237,2.371-22.537l-.7-3.334-1.447-3.371-1.957-2.544,5.814-5.3Z" fill="#333"/><path d="M2757.427,1499.281a11.219,11.219,0,0,0,3.786,1.781l3.838.649a31.036,31.036,0,0,0,7.012-.617l7.466-2.293,168.26-61.145,5.117,5.617L2878,1611.05q-3.445,7.1-3.061,13.067l.767,3.811,1.608,3.943,2.577,3.422-5.814,5.3-61.045-67.008,5.814-5.3q10.3,11.711,16.448,11.523l2.851-.434a12.886,12.886,0,0,0,3.487-1.912,33.8,33.8,0,0,0,6.061-8.589l12.187-24.626-41.565-45.624-26.146,10.294a22.087,22.087,0,0,0-7.858,4.636q-7.837,8.223,7.334,24.874l-5.814,5.3-38.781-42.57,5.813-5.3Zm73.567-5.351,34.652,38.037,28.843-62.162Z" fill="#333"/><path d="M2884.026,1639.826a65.656,65.656,0,0,0,8.239,7.461,12.665,12.665,0,0,0,5.159,2.693l3.847.463,3.031-.237a19.232,19.232,0,0,0,5.189-2.023,38.82,38.82,0,0,0,7.7-5.208l91.937-83.758,4.766-5.062q5.7-6.813,5.654-12.005l-.309-3.505q-1.5-6.393-8.587-14.176l5.814-5.3,65.085,71.442a214.6,214.6,0,0,1,14.806,18.428,66.086,66.086,0,0,1,9.072,18.965,47.817,47.817,0,0,1,1.954,19.859,42.07,42.07,0,0,1-5.669,16.343,48.722,48.722,0,0,1-9.2,11.272,46.927,46.927,0,0,1-12.366,8.2,39.075,39.075,0,0,1-11.671,3.42q-15.771,2.285-30.574-6.047l-8.892-5.6-19.275,87.706q-1.911,8.594.938,14.292l2.633,4.275-5.814,5.3-38.154-41.88,23.331-101.86-4.309-4.73-37.149,33.844a59.01,59.01,0,0,0-10.049,11.138,12.27,12.27,0,0,0-2.29,4.612l-.607,2.9a10.426,10.426,0,0,0,.35,4.64,14.018,14.018,0,0,0,1.874,4.333,44.786,44.786,0,0,0,6.834,9.283l-5.815,5.3-63.289-69.47Zm112.112-8.368q14.19,15.381,23.433,19.585,14.406,6.711,29.39-2.972a74.75,74.75,0,0,0,10.178-7.83l7.022-6.939a50.172,50.172,0,0,0,7.682-10.965q8.277-15.656-7.531-32.811-6.932-7.209-11.825-7.438l-2.091.28a16.325,16.325,0,0,0-6.792,4.024Z" fill="#333"/><path d="M3250.14,1775.669l-42.569,38.783-5.3-5.815q16.53-20.648,16.345-35.9t-17.379-35.109l-107.408,97.852q-15.741,13.8-5.736,27.946l5.1,5.994-5.814,5.3-63.29-69.47,5.814-5.3,6.57,6.816q11.892,10.083,27.282-4.3l107.408-97.852q-9.087-9.576-15.77-13.945a36.526,36.526,0,0,0-12.89-4.847q-19.518-4.4-41.944,11.163l-5.3-5.814,42.569-38.782Z" fill="#333"/><path d="M3257.322,1783.552l44.347,48.679,13.018,14.289a206.982,206.982,0,0,1,18.856,24.657q22.506,35.391,7.621,75.465a97.225,97.225,0,0,1-26.017,37.948q-25.713,23.241-58.795,25.524T3196,1989.989a262.359,262.359,0,0,1-29.442-28.358l-7.45-8.178-40.039-43.95,5.814-5.3,4.074,3.68q7.8,6.78,13.543,7.048t14.085-6.61l7.569-6.536,74.4-67.779,8.582-8q9.94-8.877,11.927-15.014,3.057-8.918-4.251-18.125l-3.3-4.023Zm-64.471,152.5-8.671,7.9q-7.08,6.086-6.441,10.646t6.661,10.971q35.889,39.8,98.267-17.032a169.6,169.6,0,0,0,22.784-25.266q28.92-39.511,1.271-69.862-6.034-6.227-10.44-6.808t-10.8,5.064l-6.8,6.195Z" fill="#333"/><path d="M3335.4,1985.249a80.717,80.717,0,0,1,15.764-8.23,96.34,96.34,0,0,1,28.184-7.464,89.985,89.985,0,0,1,29.843,1.484,100.545,100.545,0,0,1,26.238,10,103.965,103.965,0,0,1,26.663,21.151q27.828,30.546,25.759,69.94t-32.33,67.142q-24.646,22.632-56.517,26.243a83.1,83.1,0,0,1-27.87-1.3q-31.14-6.074-54.48-31.693a105.094,105.094,0,0,1-18.428-27.75q-13.548-29.316-5.992-59.821,6.991-28.547,32.2-51.153a70.562,70.562,0,0,1,10.965-8.548m21.712,44.416a204.668,204.668,0,0,0-24.811,26.209q-33.261,41.48-7.413,70.048a42.66,42.66,0,0,0,12.944,9.755,35.333,35.333,0,0,0,14.831,3.71q28.919,1.063,69.589-35.448,23.462-21.553,34.289-43.318,15.612-31.356-2.862-52.031-16.788-18.429-42.471-11.98-19.47,4.755-40.641,21.7a171.17,171.17,0,0,0-13.455,11.357" fill="#333"/><path d="M3597.47,2156.917l-5.814,5.3q-9.446-9.97-16.873-10.505t-17.571,8.523l-44.244,40.308,51.894,2.134,29.3.892q17.619.537,21.768-3.421l1.415-2.011.571-2.143q.245-3.292-4.206-8.971l-7.516-8.844,5.815-5.3,52.966,58.139-5.814,5.3q-12.263-12.271-23.6-16.007-15.886-5.364-42.634-6.42l-38.91-1.339-19.836,132.218a13.128,13.128,0,0,0,2.513,10.873l2.039,2.832-5.814,5.3-62.392-68.485,5.814-5.3,6.678,6.538,4.344,3.978q4.433,4.076,7.972,1.031,2.944-2.5,5-14.109l11.9-77.2-9.416-.439-35.967,32.767a38.55,38.55,0,0,0-5.956,6.328q-8.795,10.534-1.286,21.549l5.423,7.14-5.813,5.3-63.291-69.471,5.814-5.3q8.8,9.657,15.453,10.627,8.337,1.239,17.316-7.12l92.627-84.386q10.166-9.624,10.186-17.124t-8.959-17.355l5.814-5.3Z" fill="#333"/><path d="M3547.334,2366.328a11.187,11.187,0,0,0,3.787,1.78l3.837.65a31.148,31.148,0,0,0,7.012-.617l7.467-2.294L3737.7,2304.7l5.116,5.616-74.9,167.777q-3.447,7.1-3.061,13.068l.765,3.81,1.61,3.943,2.576,3.423-5.813,5.3-61.045-67.007,5.814-5.3q10.3,11.712,16.448,11.523l2.85-.433a12.907,12.907,0,0,0,3.487-1.913,33.788,33.788,0,0,0,6.061-8.588l12.187-24.627-41.564-45.624-26.146,10.3a22.061,22.061,0,0,0-7.859,4.636q-7.836,8.221,7.334,24.874l-5.814,5.3-38.781-42.569,5.813-5.3Zm73.568-5.351,34.651,38.036,28.843-62.162Z" fill="#333"/><path d="M3845.6,2429.28l-20.743,149.633,61.094-55.659q10.052-9.157,10.7-16.959l-.3-3.694a22.814,22.814,0,0,0-1.817-5.557,55.59,55.59,0,0,0-6.269-9.256l5.814-5.3,41.026,45.032-5.814,5.3q-8.088-6.7-13.092-8.63l-4.2-1.044a11.708,11.708,0,0,0-7.826,1.9q-7.539,3.8-10.412,6.781l-116.572,106.2-5.208-5.716,27.783-191.39-80.31,73.165q-15.194,14.2-12.268,24.34l1.5,4.222a41.389,41.389,0,0,0,6.088,9.058l-5.813,5.3-41.026-45.032,5.814-5.3q10.464,10.3,18.894,9.655,7.386-.6,19-10.816L3802.1,2423.1q3.067-15.235,2.37-22.536l-.694-3.335-1.447-3.37-1.957-2.545,5.813-5.3Z" fill="#333"/><path d="M1464.292,566.308a11.125,11.125,0,0,0,3.786,1.78l3.837.652a31.2,31.2,0,0,0,7.012-.618l7.467-2.294,168.259-61.144,5.118,5.616-74.9,167.776q-3.445,7.105-3.062,13.069l.766,3.811,1.609,3.942,2.578,3.423-5.813,5.3L1519.9,640.611l5.814-5.3q10.3,11.712,16.449,11.523l2.852-.433a12.9,12.9,0,0,0,3.485-1.914,33.762,33.762,0,0,0,6.062-8.587l12.187-24.627-41.566-45.624-26.145,10.294a22.076,22.076,0,0,0-7.859,4.637q-7.838,8.222,7.336,24.874l-5.816,5.3-38.781-42.569,5.815-5.3Zm73.567-5.35,34.651,38.036,28.844-62.162Z" fill="#333"/><path d="M1590.891,706.854a65.473,65.473,0,0,0,8.239,7.46,12.638,12.638,0,0,0,5.158,2.694l3.847.463,3.032-.237a19.223,19.223,0,0,0,5.188-2.024,38.794,38.794,0,0,0,7.7-5.208l91.937-83.757,4.765-5.063q5.7-6.813,5.653-12l-.308-3.506q-1.494-6.391-8.586-14.176l5.814-5.3,65.084,71.442a214.21,214.21,0,0,1,14.806,18.428,66.085,66.085,0,0,1,9.073,18.965,47.841,47.841,0,0,1,1.953,19.86,42.1,42.1,0,0,1-5.668,16.342,48.732,48.732,0,0,1-9.206,11.272,46.928,46.928,0,0,1-12.365,8.2,39.108,39.108,0,0,1-11.672,3.419q-15.771,2.285-30.573-6.047l-8.892-5.6-19.276,87.707q-1.911,8.592.939,14.292l2.632,4.274-5.814,5.3-38.153-41.88,23.33-101.86-4.308-4.73-37.15,33.844a59.036,59.036,0,0,0-10.048,11.138,12.278,12.278,0,0,0-2.291,4.613l-.608,2.9a10.454,10.454,0,0,0,.352,4.639,13.916,13.916,0,0,0,1.874,4.333,44.706,44.706,0,0,0,6.834,9.283l-5.815,5.3-63.289-69.47ZM1703,698.485q14.19,15.383,23.431,19.585,14.409,6.711,29.39-2.972a74.591,74.591,0,0,0,10.179-7.83l7.023-6.938a50.239,50.239,0,0,0,7.682-10.966q8.275-15.654-7.531-32.81-6.931-7.211-11.827-7.439l-2.089.28a16.32,16.32,0,0,0-6.792,4.025Z" fill="#333"/><path d="M1957.005,842.7l-42.569,38.783-5.3-5.815q16.528-20.649,16.345-35.9t-17.38-35.109L1800.7,902.51q-15.741,13.8-5.736,27.946l5.1,5.993-5.815,5.3-63.289-69.47,5.814-5.3,6.57,6.817q11.892,10.083,27.282-4.3l107.408-97.853q-9.087-9.576-15.77-13.945a36.532,36.532,0,0,0-12.89-4.846q-19.518-4.4-41.944,11.163l-5.3-5.814,42.569-38.782Z" fill="#333"/><path d="M1964.187,850.579l44.347,48.679,13.018,14.288a207.068,207.068,0,0,1,18.856,24.657q22.506,35.392,7.62,75.465a97.227,97.227,0,0,1-26.016,37.949q-25.713,23.241-58.8,25.523t-60.349-20.124a262,262,0,0,1-29.442-28.359l-7.451-8.178-40.038-43.948,5.814-5.3,4.074,3.681q7.8,6.781,13.543,7.048t14.085-6.61l7.569-6.536,74.4-67.779,8.582-8q9.942-8.879,11.928-15.014,3.055-8.916-4.251-18.126l-3.305-4.023Zm-64.471,152.5-8.672,7.9q-7.078,6.087-6.44,10.646t6.66,10.972q35.891,39.8,98.268-17.032a169.707,169.707,0,0,0,22.784-25.266q28.92-39.513,1.27-69.862-6.035-6.227-10.44-6.808t-10.8,5.064l-6.8,6.2Z" fill="#333"/><path d="M2042.267,1052.276a80.84,80.84,0,0,1,15.764-8.23,96.357,96.357,0,0,1,28.184-7.463,90.007,90.007,0,0,1,29.843,1.483,100.544,100.544,0,0,1,26.238,10,103.961,103.961,0,0,1,26.663,21.15q27.828,30.546,25.76,69.941t-32.331,67.142q-24.646,22.631-56.516,26.242a83.1,83.1,0,0,1-27.87-1.3q-31.141-6.073-54.48-31.693a105.075,105.075,0,0,1-18.428-27.751q-13.547-29.314-5.992-59.82,6.991-28.548,32.2-51.153a70.563,70.563,0,0,1,10.965-8.549m21.712,44.417a204.656,204.656,0,0,0-24.81,26.208q-33.261,41.481-7.413,70.049a42.664,42.664,0,0,0,12.944,9.755,35.364,35.364,0,0,0,14.831,3.71q28.917,1.063,69.589-35.449,23.46-21.552,34.288-43.318,15.612-31.356-2.861-52.031-16.788-18.429-42.471-11.98-19.471,4.757-40.642,21.7a171.143,171.143,0,0,0-13.455,11.358" fill="#333"/><path d="M2304.335,1223.945l-5.814,5.3q-9.445-9.97-16.873-10.5t-17.571,8.523l-44.244,40.308,51.894,2.134,29.3.892q17.619.537,21.769-3.421l1.414-2.01.572-2.145q.245-3.291-4.207-8.97l-7.515-8.843,5.815-5.3,52.966,58.139-5.814,5.3q-12.264-12.272-23.6-16.007-15.888-5.364-42.635-6.42l-38.909-1.339L2241.05,1411.8a13.13,13.13,0,0,0,2.512,10.874l2.04,2.831-5.815,5.3-62.392-68.485,5.815-5.3,6.678,6.539,4.344,3.976q4.431,4.077,7.972,1.032,2.944-2.5,5-14.109l11.9-77.2-9.415-.439-35.968,32.767a38.549,38.549,0,0,0-5.956,6.329q-8.8,10.534-1.286,21.548l5.424,7.14-5.815,5.3-63.289-69.471,5.814-5.3q8.8,9.657,15.453,10.627,8.337,1.239,17.316-7.12L2234,1194.25q10.164-9.624,10.184-17.124t-8.957-17.355l5.814-5.3Z" fill="#333"/><path d="M2254.2,1433.354a11.141,11.141,0,0,0,3.786,1.78l3.838.652a31.2,31.2,0,0,0,7.012-.618l7.466-2.294,168.26-61.144,5.117,5.616-74.9,167.776q-3.447,7.106-3.062,13.069l.766,3.811,1.609,3.942,2.578,3.423-5.815,5.3-61.045-67.007,5.814-5.3q10.3,11.712,16.448,11.523l2.851-.433a12.892,12.892,0,0,0,3.487-1.914,33.742,33.742,0,0,0,6.061-8.587l12.187-24.627-41.565-45.624-26.145,10.294a22.07,22.07,0,0,0-7.859,4.637q-7.839,8.221,7.334,24.874l-5.814,5.3-38.781-42.569,5.814-5.3Zm73.567-5.35,34.652,38.036,28.843-62.161Z" fill="#333"/><path d="M2552.466,1496.307l-20.743,149.633,61.094-55.659q10.052-9.157,10.7-16.958l-.3-3.695a22.771,22.771,0,0,0-1.818-5.557,55.568,55.568,0,0,0-6.268-9.256l5.814-5.3,41.026,45.032-5.814,5.3q-8.088-6.7-13.092-8.63l-4.2-1.044a11.72,11.72,0,0,0-7.826,1.9q-7.539,3.8-10.411,6.781l-116.573,106.2-5.207-5.716,27.783-191.389-80.31,73.164q-15.194,14.2-12.268,24.34l1.5,4.222a41.366,41.366,0,0,0,6.088,9.058l-5.814,5.3L2374.8,1579l5.814-5.3q10.466,10.3,18.894,9.655,7.386-.6,19-10.816l90.458-82.411q3.069-15.235,2.371-22.536l-.694-3.334-1.447-3.371-1.958-2.544,5.815-5.3Z" fill="#333"/><path d="M2515.258,1719.906a11.128,11.128,0,0,0,3.785,1.78l3.838.652a31.257,31.257,0,0,0,7.012-.618l7.467-2.295,168.259-61.143,5.117,5.616-74.9,167.776q-3.447,7.106-3.062,13.069l.766,3.811,1.609,3.942,2.578,3.423-5.814,5.3-61.046-67.006,5.814-5.3q10.307,11.712,16.449,11.523l2.851-.433a12.9,12.9,0,0,0,3.486-1.914,33.765,33.765,0,0,0,6.061-8.587l12.187-24.627-41.565-45.624L2550,1729.544a22.076,22.076,0,0,0-7.859,4.636q-7.838,8.223,7.335,24.875l-5.814,5.3-38.782-42.569,5.814-5.3Zm73.566-5.35,34.652,38.036,28.843-62.162Z" fill="#333"/><path d="M2641.856,1860.451a65.549,65.549,0,0,0,8.239,7.46,12.641,12.641,0,0,0,5.159,2.694l3.847.463,3.031-.237a19.256,19.256,0,0,0,5.189-2.023,38.8,38.8,0,0,0,7.7-5.209l91.937-83.757,4.765-5.063q5.694-6.813,5.653-12l-.308-3.506q-1.5-6.391-8.587-14.175l5.814-5.3,65.085,71.442a214.271,214.271,0,0,1,14.806,18.429,66.08,66.08,0,0,1,9.072,18.964,47.792,47.792,0,0,1,1.953,19.86,42.067,42.067,0,0,1-5.668,16.342,48.7,48.7,0,0,1-9.205,11.272,46.929,46.929,0,0,1-12.366,8.2,39.1,39.1,0,0,1-11.671,3.419q-15.771,2.288-30.574-6.047l-8.892-5.6-19.276,87.707q-1.909,8.592.939,14.292l2.633,4.274-5.815,5.3-38.153-41.879,23.331-101.861-4.309-4.729-37.149,33.843a59.035,59.035,0,0,0-10.049,11.138,12.255,12.255,0,0,0-2.29,4.613l-.608,2.9a10.42,10.42,0,0,0,.351,4.638,13.96,13.96,0,0,0,1.874,4.333,44.784,44.784,0,0,0,6.834,9.283l-5.814,5.3-63.29-69.471Zm112.112-8.369q14.19,15.383,23.432,19.585,14.407,6.711,29.39-2.972a74.482,74.482,0,0,0,10.178-7.83l7.023-6.938a50.2,50.2,0,0,0,7.682-10.966q8.277-15.654-7.531-32.81-6.932-7.211-11.826-7.439l-2.089.28a16.329,16.329,0,0,0-6.793,4.025Z" fill="#333"/><path d="M3007.97,1996.294l-42.569,38.781-5.3-5.813q16.529-20.649,16.345-35.9t-17.38-35.109l-107.408,97.852q-15.739,13.8-5.736,27.947l5.1,5.993-5.815,5.3-63.289-69.47,5.814-5.3,6.57,6.817q11.892,10.083,27.282-4.3L2929,1925.245q-9.087-9.576-15.77-13.945a36.507,36.507,0,0,0-12.89-4.846q-19.518-4.4-41.944,11.163l-5.3-5.814,42.569-38.782Z" fill="#333"/><path d="M3015.152,2004.177l44.347,48.679,13.018,14.288a207.121,207.121,0,0,1,18.856,24.657q22.506,35.392,7.621,75.465a97.22,97.22,0,0,1-26.017,37.948q-25.712,23.242-58.8,25.524t-60.349-20.125a262,262,0,0,1-29.442-28.358l-7.451-8.178-40.038-43.949,5.814-5.3,4.074,3.681q7.8,6.78,13.543,7.048t14.085-6.61l7.569-6.536,74.4-67.779,8.582-8q9.942-8.878,11.928-15.015,3.055-8.914-4.251-18.125l-3.305-4.023Zm-64.471,152.5-8.671,7.9q-7.08,6.087-6.441,10.646t6.661,10.972q35.889,39.8,98.267-17.032a169.707,169.707,0,0,0,22.784-25.267q28.92-39.511,1.271-69.861-6.034-6.227-10.441-6.808t-10.8,5.064l-6.8,6.194Z" fill="#333"/><path d="M3093.233,2205.875a80.783,80.783,0,0,1,15.764-8.231,96.342,96.342,0,0,1,28.184-7.463,90.007,90.007,0,0,1,29.843,1.483,100.538,100.538,0,0,1,26.238,10,103.958,103.958,0,0,1,26.663,21.15q27.828,30.547,25.76,69.941t-32.331,67.142q-24.646,22.63-56.516,26.242a83.1,83.1,0,0,1-27.87-1.3q-31.141-6.074-54.481-31.693a105.117,105.117,0,0,1-18.428-27.751q-13.547-29.314-5.991-59.82,6.991-28.548,32.2-51.153a70.529,70.529,0,0,1,10.966-8.548m21.711,44.416a204.656,204.656,0,0,0-24.81,26.209q-33.26,41.48-7.412,70.048a42.653,42.653,0,0,0,12.944,9.755,35.343,35.343,0,0,0,14.831,3.71q28.917,1.063,69.589-35.449,23.46-21.552,34.288-43.318,15.612-31.356-2.861-52.031-16.789-18.428-42.471-11.98-19.471,4.756-40.642,21.7a171.328,171.328,0,0,0-13.456,11.358" fill="#333"/><path d="M3355.3,2377.542l-5.814,5.3q-9.446-9.971-16.873-10.505t-17.571,8.523l-44.244,40.308,51.894,2.134,29.3.892q17.619.537,21.769-3.421l1.414-2.01.572-2.145q.246-3.291-4.206-8.97l-7.515-8.843,5.814-5.3,52.966,58.139-5.814,5.3q-12.263-12.271-23.6-16.007-15.888-5.364-42.634-6.419l-38.909-1.34-19.837,132.218a13.131,13.131,0,0,0,2.512,10.874l2.04,2.831-5.814,5.3-62.393-68.485,5.815-5.3,6.678,6.539,4.344,3.977q4.433,4.077,7.972,1.032,2.946-2.5,5-14.11l11.9-77.2-9.415-.439-35.967,32.767a38.561,38.561,0,0,0-5.957,6.329q-8.795,10.534-1.286,21.549l5.424,7.139-5.814,5.3-63.29-69.47,5.814-5.3q8.8,9.657,15.453,10.627,8.337,1.239,17.316-7.12l92.627-84.386q10.166-9.624,10.185-17.124t-8.958-17.355l5.814-5.3Z" fill="#333"/><path d="M3305.165,2586.952a11.123,11.123,0,0,0,3.785,1.78l3.838.652a31.2,31.2,0,0,0,7.012-.618l7.467-2.294,168.259-61.144,5.117,5.616-74.9,167.776q-3.447,7.106-3.062,13.069l.766,3.811,1.609,3.942,2.578,3.423-5.815,5.3-61.045-67.007,5.814-5.3q10.305,11.712,16.449,11.523l2.851-.433a12.909,12.909,0,0,0,3.486-1.914,33.751,33.751,0,0,0,6.061-8.587l12.187-24.627-41.565-45.624-26.145,10.294a22.074,22.074,0,0,0-7.859,4.637q-7.838,8.221,7.334,24.874l-5.814,5.3-38.781-42.569,5.814-5.3Zm73.566-5.35,34.652,38.036,28.843-62.162Z" fill="#333"/><path d="M3603.431,2649.905l-20.743,149.633,61.094-55.659q10.051-9.157,10.7-16.958l-.3-3.695a22.761,22.761,0,0,0-1.818-5.557,55.572,55.572,0,0,0-6.268-9.256l5.814-5.3,41.026,45.032-5.814,5.3q-8.088-6.7-13.092-8.63l-4.2-1.044a11.715,11.715,0,0,0-7.826,1.9q-7.539,3.8-10.411,6.781l-116.573,106.2-5.207-5.716,27.783-191.389-80.31,73.164q-15.193,14.2-12.268,24.34l1.5,4.222a41.373,41.373,0,0,0,6.088,9.058l-5.814,5.3-41.026-45.032,5.815-5.3q10.464,10.3,18.894,9.655,7.386-.6,19-10.816l90.458-82.411q3.069-15.235,2.371-22.536l-.694-3.334-1.447-3.371-1.958-2.544,5.815-5.3Z" fill="#333"/><path d="M1222.123,786.933a11.129,11.129,0,0,0,3.785,1.78l3.838.652a31.262,31.262,0,0,0,7.012-.618l7.467-2.295,168.259-61.143,5.117,5.616L1342.7,898.7q-3.447,7.105-3.062,13.069l.766,3.811,1.609,3.942,2.578,3.423-5.815,5.3-61.045-67.006,5.814-5.3q10.3,11.712,16.449,11.523l2.851-.433a12.9,12.9,0,0,0,3.486-1.914,33.764,33.764,0,0,0,6.061-8.587L1324.58,831.9l-41.565-45.624-26.145,10.294a22.054,22.054,0,0,0-7.859,4.637q-7.837,8.222,7.334,24.874l-5.814,5.3L1211.75,788.81l5.814-5.3Zm73.566-5.35,34.652,38.036,28.843-62.162Z" fill="#333"/><path d="M1348.721,927.478a65.548,65.548,0,0,0,8.239,7.46,12.644,12.644,0,0,0,5.159,2.7l3.847.461,3.031-.236a19.224,19.224,0,0,0,5.189-2.024,38.753,38.753,0,0,0,7.7-5.208l91.937-83.758,4.765-5.062q5.694-6.813,5.653-12l-.308-3.506q-1.5-6.392-8.587-14.175l5.814-5.3,65.085,71.442a214.252,214.252,0,0,1,14.806,18.429,66.086,66.086,0,0,1,9.072,18.964,47.811,47.811,0,0,1,1.953,19.861,42.077,42.077,0,0,1-5.668,16.342,48.74,48.74,0,0,1-9.2,11.272,46.955,46.955,0,0,1-12.366,8.2,39.065,39.065,0,0,1-11.671,3.419q-15.771,2.285-30.574-6.046l-8.892-5.6-19.276,87.707q-1.909,8.591.939,14.292l2.633,4.274-5.815,5.3-38.153-41.879,23.331-101.861-4.309-4.73L1415.9,960.045a59.013,59.013,0,0,0-10.049,11.139,12.255,12.255,0,0,0-2.29,4.612l-.608,2.9a10.443,10.443,0,0,0,.351,4.641,13.978,13.978,0,0,0,1.874,4.333,44.786,44.786,0,0,0,6.834,9.282l-5.814,5.3-63.29-69.472Zm112.112-8.369q14.19,15.383,23.432,19.586,14.407,6.71,29.39-2.973a74.568,74.568,0,0,0,10.178-7.829l7.023-6.938a50.239,50.239,0,0,0,7.682-10.966q8.277-15.656-7.531-32.811-6.931-7.209-11.826-7.438l-2.089.28a16.327,16.327,0,0,0-6.793,4.024Z" fill="#333"/><path d="M1714.835,1063.321l-42.569,38.782-5.3-5.814q16.529-20.649,16.344-35.9t-17.379-35.109l-107.408,97.852q-15.741,13.8-5.736,27.947l5.1,5.993-5.815,5.3-63.29-69.47,5.815-5.3,6.57,6.817q11.892,10.083,27.282-4.3l107.408-97.852q-9.087-9.576-15.77-13.945a36.512,36.512,0,0,0-12.891-4.846q-19.516-4.4-41.943,11.163l-5.3-5.814,42.569-38.782Z" fill="#333"/><path d="M1722.017,1071.2l44.347,48.679,13.018,14.288a207.087,207.087,0,0,1,18.856,24.657q22.506,35.392,7.62,75.465a97.217,97.217,0,0,1-26.016,37.948q-25.713,23.242-58.8,25.524t-60.349-20.124a262,262,0,0,1-29.442-28.359l-7.451-8.178-40.038-43.949,5.814-5.3,4.074,3.681q7.8,6.782,13.543,7.048t14.085-6.61l7.569-6.536,74.4-67.779,8.582-8q9.942-8.878,11.928-15.014,3.055-8.916-4.251-18.126l-3.3-4.023Zm-64.471,152.5-8.672,7.9q-7.078,6.087-6.44,10.646t6.66,10.972q35.891,39.8,98.268-17.032a169.7,169.7,0,0,0,22.784-25.266q28.92-39.513,1.27-69.862-6.033-6.227-10.44-6.808t-10.8,5.064l-6.8,6.194Z" fill="#333"/><path d="M1800.1,1272.9a80.785,80.785,0,0,1,15.764-8.232,96.383,96.383,0,0,1,28.184-7.462,90.01,90.01,0,0,1,29.843,1.482,100.6,100.6,0,0,1,26.238,10,103.932,103.932,0,0,1,26.663,21.151q27.829,30.547,25.76,69.941t-32.331,67.141q-24.645,22.632-56.516,26.243a83.1,83.1,0,0,1-27.87-1.3q-31.141-6.073-54.48-31.692a105.111,105.111,0,0,1-18.429-27.751q-13.547-29.316-5.992-59.82,6.993-28.548,32.2-51.154a70.549,70.549,0,0,1,10.966-8.547m21.711,44.415a204.515,204.515,0,0,0-24.809,26.21q-33.261,41.478-7.413,70.047a42.666,42.666,0,0,0,12.944,9.756,35.331,35.331,0,0,0,14.831,3.71q28.917,1.063,69.589-35.449,23.46-21.553,34.288-43.319,15.61-31.356-2.861-52.031-16.788-18.426-42.472-11.979-19.47,4.757-40.641,21.7a171.991,171.991,0,0,0-13.456,11.358" fill="#333"/><path d="M2062.165,1444.569l-5.814,5.3q-9.446-9.97-16.873-10.505t-17.571,8.523l-44.244,40.309,51.894,2.133,29.3.892q17.619.537,21.769-3.421l1.414-2.01.572-2.145q.246-3.291-4.207-8.97l-7.514-8.843,5.814-5.3,52.966,58.139-5.814,5.3q-12.263-12.272-23.6-16.007-15.888-5.364-42.635-6.419l-38.908-1.34-19.837,132.218a13.13,13.13,0,0,0,2.512,10.874l2.04,2.831-5.814,5.3-62.393-68.485,5.815-5.3,6.678,6.539,4.344,3.977q4.431,4.077,7.972,1.032,2.946-2.505,5-14.11l11.9-77.2-9.415-.44-35.968,32.767a38.55,38.55,0,0,0-5.956,6.329q-8.794,10.534-1.286,21.549l5.424,7.139-5.814,5.3-63.29-69.47,5.814-5.3q8.8,9.657,15.453,10.627,8.337,1.239,17.316-7.12l92.627-84.386q10.164-9.623,10.185-17.124t-8.958-17.355l5.814-5.3Z" fill="#333"/><path d="M2012.029,1653.979a11.141,11.141,0,0,0,3.786,1.78l3.838.652a31.255,31.255,0,0,0,7.012-.618l7.466-2.295,168.26-61.143,5.117,5.616-74.9,167.776q-3.447,7.106-3.062,13.069l.766,3.811,1.609,3.942,2.578,3.423-5.815,5.3-61.045-67.006,5.814-5.3q10.305,11.712,16.448,11.523l2.851-.433a12.894,12.894,0,0,0,3.487-1.914,33.765,33.765,0,0,0,6.061-8.587l12.187-24.627-41.565-45.624-26.145,10.294a22.069,22.069,0,0,0-7.859,4.637q-7.837,8.221,7.334,24.874l-5.814,5.3-38.781-42.569,5.814-5.3Zm73.567-5.35,34.652,38.036,28.843-62.162Z" fill="#333"/><path d="M2310.3,1716.932l-20.743,149.633,61.094-55.659q10.051-9.157,10.7-16.958l-.3-3.695a22.761,22.761,0,0,0-1.818-5.557,55.538,55.538,0,0,0-6.268-9.256l5.814-5.3,41.026,45.032-5.814,5.3q-8.088-6.7-13.092-8.63l-4.2-1.044a11.715,11.715,0,0,0-7.826,1.9q-7.539,3.8-10.411,6.781l-116.573,106.2-5.207-5.716,27.783-191.389-80.31,73.164q-15.193,14.2-12.268,24.34l1.5,4.222a41.389,41.389,0,0,0,6.088,9.058l-5.814,5.3-41.025-45.032,5.814-5.3q10.466,10.3,18.894,9.655,7.386-.6,19-10.816l90.458-82.411q3.069-15.235,2.371-22.536l-.694-3.335-1.447-3.37-1.958-2.544,5.815-5.3Z" fill="#333"/><path d="M2273.087,1940.53a11.145,11.145,0,0,0,3.786,1.78l3.838.652a31.209,31.209,0,0,0,7.012-.618l7.466-2.294,168.26-61.144,5.117,5.616-74.9,167.776q-3.447,7.105-3.062,13.069l.766,3.811,1.609,3.942,2.578,3.423-5.815,5.3-61.045-67.006,5.814-5.3q10.305,11.712,16.448,11.523l2.851-.433a12.9,12.9,0,0,0,3.487-1.914,33.761,33.761,0,0,0,6.061-8.587l12.187-24.627-41.565-45.624-26.145,10.294a22.068,22.068,0,0,0-7.859,4.637q-7.839,8.221,7.334,24.874l-5.814,5.3-38.781-42.569,5.814-5.3Zm73.567-5.35,34.652,38.036,28.843-62.162Z" fill="#333"/><path d="M2399.686,2081.076a65.521,65.521,0,0,0,8.239,7.46,12.64,12.64,0,0,0,5.159,2.694l3.847.463,3.031-.237a19.22,19.22,0,0,0,5.189-2.024,38.8,38.8,0,0,0,7.7-5.208l91.937-83.757,4.765-5.063q5.694-6.813,5.653-12l-.308-3.506q-1.5-6.391-8.587-14.176l5.814-5.3,65.085,71.442a214.409,214.409,0,0,1,14.806,18.428,66.072,66.072,0,0,1,9.072,18.965,47.792,47.792,0,0,1,1.953,19.86,42.069,42.069,0,0,1-5.668,16.342,48.7,48.7,0,0,1-9.205,11.272,46.933,46.933,0,0,1-12.366,8.2,39.1,39.1,0,0,1-11.671,3.419q-15.771,2.284-30.574-6.047l-8.892-5.6-19.276,87.707q-1.909,8.592.939,14.292l2.633,4.274-5.815,5.3-38.153-41.88,23.331-101.86-4.309-4.73-37.149,33.844a59.007,59.007,0,0,0-10.049,11.138,12.263,12.263,0,0,0-2.29,4.613l-.608,2.9a10.434,10.434,0,0,0,.351,4.639,13.96,13.96,0,0,0,1.874,4.333,44.772,44.772,0,0,0,6.834,9.283l-5.814,5.3-63.29-69.47Zm112.112-8.369q14.19,15.382,23.432,19.585,14.407,6.711,29.39-2.972a74.6,74.6,0,0,0,10.178-7.83l7.023-6.938a50.239,50.239,0,0,0,7.682-10.966q8.277-15.654-7.531-32.81-6.931-7.211-11.826-7.439l-2.089.28a16.33,16.33,0,0,0-6.793,4.025Z" fill="#333"/><path d="M2765.8,2216.919l-42.57,38.782-5.3-5.814q16.528-20.649,16.344-35.9T2716.9,2178.88l-107.408,97.852q-15.741,13.8-5.736,27.947l5.1,5.993-5.813,5.3-63.291-69.47,5.815-5.3,6.569,6.817q11.893,10.083,27.283-4.3l107.408-97.852q-9.087-9.576-15.77-13.945a36.531,36.531,0,0,0-12.89-4.846q-19.518-4.4-41.944,11.163l-5.3-5.814,42.568-38.782Z" fill="#333"/><path d="M2772.982,2224.8l44.348,48.679,13.017,14.288a207.008,207.008,0,0,1,18.857,24.657q22.506,35.392,7.619,75.465a97.207,97.207,0,0,1-26.015,37.948q-25.713,23.242-58.8,25.524t-60.349-20.125a261.892,261.892,0,0,1-29.442-28.358l-7.451-8.178-40.039-43.949,5.815-5.3,4.074,3.681q7.8,6.78,13.543,7.048t14.085-6.61l7.569-6.536,74.4-67.779,8.582-8q9.942-8.878,11.928-15.014,3.054-8.916-4.251-18.126l-3.306-4.023Zm-64.47,152.5-8.672,7.9q-7.078,6.087-6.44,10.646t6.66,10.972q35.891,39.8,98.267-17.032a169.71,169.71,0,0,0,22.785-25.266q28.92-39.513,1.27-69.862-6.035-6.227-10.44-6.808t-10.8,5.064l-6.8,6.194Z" fill="#333"/><path d="M2851.063,2426.5a80.788,80.788,0,0,1,15.764-8.231,96.354,96.354,0,0,1,28.184-7.463,90.007,90.007,0,0,1,29.843,1.483,100.54,100.54,0,0,1,26.238,10,103.946,103.946,0,0,1,26.663,21.151q27.828,30.546,25.76,69.94t-32.331,67.142q-24.647,22.63-56.516,26.242a83.1,83.1,0,0,1-27.87-1.3q-31.141-6.074-54.481-31.693a105.129,105.129,0,0,1-18.428-27.751q-13.547-29.314-5.991-59.82,6.992-28.548,32.2-51.153a70.542,70.542,0,0,1,10.966-8.548m21.711,44.416a204.653,204.653,0,0,0-24.81,26.209q-33.26,41.48-7.412,70.048a42.665,42.665,0,0,0,12.944,9.755,35.347,35.347,0,0,0,14.831,3.71q28.917,1.063,69.589-35.449,23.46-21.552,34.288-43.318,15.612-31.356-2.861-52.031-16.79-18.428-42.471-11.98-19.471,4.757-40.642,21.7a171.387,171.387,0,0,0-13.456,11.358" fill="#333"/><path d="M3113.13,2598.167l-5.814,5.3q-9.445-9.971-16.873-10.505t-17.571,8.523l-44.244,40.309,51.894,2.133,29.3.892q17.621.537,21.769-3.421l1.414-2.01.572-2.145q.248-3.291-4.206-8.97l-7.515-8.843,5.814-5.3,52.966,58.139-5.814,5.3q-12.263-12.273-23.6-16.008-15.888-5.364-42.634-6.419l-38.909-1.34-19.837,132.218a13.131,13.131,0,0,0,2.512,10.874l2.04,2.831-5.814,5.3-62.392-68.485,5.814-5.3,6.678,6.539,4.344,3.977q4.432,4.077,7.972,1.032,2.946-2.5,5-14.11l11.9-77.2-9.415-.439-35.967,32.767a38.573,38.573,0,0,0-5.957,6.329q-8.795,10.534-1.286,21.549l5.424,7.139-5.814,5.3-63.29-69.47,5.814-5.3q8.8,9.657,15.453,10.627,8.337,1.239,17.316-7.12l92.627-84.386q10.165-9.623,10.185-17.124t-8.958-17.355l5.814-5.3Z" fill="#333"/><path d="M3063,2807.577a11.122,11.122,0,0,0,3.785,1.779l3.838.653a31.255,31.255,0,0,0,7.012-.618l7.467-2.3,168.259-61.142,5.117,5.615-74.9,167.776q-3.447,7.107-3.062,13.069l.766,3.811,1.609,3.943,2.578,3.422-5.815,5.3L3118.6,2881.88l5.814-5.3q10.307,11.712,16.449,11.522l2.851-.433a12.937,12.937,0,0,0,3.486-1.913,33.78,33.78,0,0,0,6.061-8.587l12.187-24.627-41.565-45.624-26.145,10.293a22.117,22.117,0,0,0-7.859,4.636q-7.838,8.224,7.334,24.875l-5.813,5.3-38.782-42.569,5.814-5.3Zm73.566-5.351,34.652,38.036,28.843-62.162Z" fill="#333"/><path d="M3361.261,2870.53l-20.743,149.633,61.094-55.659q10.051-9.157,10.7-16.958l-.3-3.695a22.771,22.771,0,0,0-1.818-5.557,55.554,55.554,0,0,0-6.268-9.256l5.814-5.3,41.026,45.032-5.814,5.3q-8.088-6.7-13.092-8.63l-4.2-1.044a11.715,11.715,0,0,0-7.826,1.9q-7.539,3.8-10.411,6.781l-116.573,106.2-5.207-5.716,27.783-191.389-80.31,73.164q-15.193,14.2-12.268,24.34l1.5,4.222a41.364,41.364,0,0,0,6.088,9.058l-5.814,5.3-41.025-45.032,5.814-5.3q10.466,10.3,18.894,9.655,7.386-.6,19-10.816l90.458-82.411q3.069-15.235,2.371-22.536l-.694-3.334-1.447-3.371-1.958-2.544,5.815-5.3Z" fill="#333"/><path d="M979.952,1007.558a11.129,11.129,0,0,0,3.785,1.78l3.838.652a31.2,31.2,0,0,0,7.012-.618l7.467-2.294,168.259-61.144,5.117,5.616-74.9,167.776q-3.447,7.105-3.062,13.069l.766,3.811,1.609,3.942,2.578,3.423-5.815,5.3-61.045-67.006,5.814-5.3q10.3,11.712,16.449,11.523l2.851-.433a12.9,12.9,0,0,0,3.486-1.914,33.748,33.748,0,0,0,6.061-8.587l12.187-24.627-41.565-45.624L1014.7,1017.2a22.068,22.068,0,0,0-7.859,4.637q-7.838,8.221,7.335,24.874l-5.815,5.3-38.781-42.569,5.814-5.3Zm73.566-5.35,34.652,38.036,28.843-62.162Z" fill="#333"/><path d="M1106.55,1148.1a65.539,65.539,0,0,0,8.239,7.46,12.65,12.65,0,0,0,5.159,2.694l3.847.463,3.031-.237a19.226,19.226,0,0,0,5.189-2.024,38.792,38.792,0,0,0,7.7-5.208l91.937-83.757,4.765-5.063q5.694-6.813,5.653-12l-.308-3.506q-1.5-6.391-8.587-14.176l5.814-5.3,65.085,71.442a214.431,214.431,0,0,1,14.806,18.428,66.081,66.081,0,0,1,9.072,18.965,47.788,47.788,0,0,1,1.953,19.86,42.08,42.08,0,0,1-5.667,16.342,48.728,48.728,0,0,1-9.206,11.272,46.934,46.934,0,0,1-12.366,8.2,39.1,39.1,0,0,1-11.671,3.419q-15.771,2.284-30.574-6.047l-8.892-5.6-19.276,87.707q-1.909,8.592.939,14.292l2.633,4.274-5.815,5.3-38.153-41.879,23.331-101.861-4.309-4.729-37.149,33.843a59.007,59.007,0,0,0-10.049,11.138,12.26,12.26,0,0,0-2.29,4.613l-.608,2.9a10.436,10.436,0,0,0,.351,4.639,13.967,13.967,0,0,0,1.874,4.333,44.788,44.788,0,0,0,6.834,9.283l-5.814,5.3-63.29-69.47Zm112.112-8.369q14.19,15.383,23.432,19.585,14.407,6.711,29.39-2.972a74.578,74.578,0,0,0,10.178-7.83l7.023-6.938a50.241,50.241,0,0,0,7.682-10.966q8.277-15.654-7.531-32.81-6.932-7.211-11.826-7.439l-2.089.28a16.328,16.328,0,0,0-6.793,4.025Z" fill="#333"/><path d="M1472.665,1283.946l-42.57,38.783-5.3-5.815q16.53-20.649,16.345-35.9t-17.379-35.109l-107.409,97.853q-15.741,13.8-5.735,27.946l5.1,5.993-5.814,5.3-63.29-69.47,5.815-5.3,6.569,6.817q11.892,10.083,27.282-4.3l107.409-97.853q-9.089-9.576-15.77-13.945a36.543,36.543,0,0,0-12.89-4.846q-19.52-4.4-41.944,11.163l-5.3-5.814,42.569-38.782Z" fill="#333"/><path d="M1479.847,1291.829l44.347,48.679,13.018,14.288a207.1,207.1,0,0,1,18.856,24.657q22.506,35.392,7.621,75.465a97.238,97.238,0,0,1-26.017,37.949q-25.713,23.241-58.8,25.523t-60.349-20.124a262,262,0,0,1-29.442-28.359l-7.451-8.178-40.038-43.948,5.814-5.3,4.074,3.681q7.8,6.782,13.543,7.048t14.085-6.61l7.569-6.536,74.4-67.779,8.582-8q9.942-8.878,11.928-15.014,3.055-8.916-4.251-18.126l-3.305-4.023Zm-64.471,152.5-8.671,7.9q-7.08,6.087-6.441,10.646t6.66,10.972q35.891,39.8,98.268-17.032a169.7,169.7,0,0,0,22.784-25.266q28.92-39.513,1.27-69.862-6.033-6.227-10.44-6.808t-10.8,5.064l-6.8,6.195Z" fill="#333"/><path d="M1557.927,1493.526a80.84,80.84,0,0,1,15.764-8.23,96.347,96.347,0,0,1,28.184-7.463,90.007,90.007,0,0,1,29.843,1.483,100.547,100.547,0,0,1,26.238,10,103.963,103.963,0,0,1,26.663,21.15q27.829,30.546,25.76,69.941t-32.331,67.142q-24.647,22.631-56.516,26.242a83.1,83.1,0,0,1-27.87-1.3q-31.141-6.073-54.481-31.693a105.12,105.12,0,0,1-18.428-27.751q-13.547-29.314-5.991-59.82,6.992-28.548,32.2-51.153a70.616,70.616,0,0,1,10.966-8.549m21.711,44.417a204.643,204.643,0,0,0-24.809,26.208q-33.261,41.481-7.413,70.049a42.652,42.652,0,0,0,12.944,9.755,35.364,35.364,0,0,0,14.831,3.71q28.917,1.063,69.589-35.449,23.46-21.552,34.288-43.318,15.612-31.356-2.861-52.031-16.788-18.429-42.471-11.98-19.471,4.757-40.642,21.7a171.588,171.588,0,0,0-13.456,11.358" fill="#333"/><path d="M1819.994,1665.195l-5.814,5.3q-9.445-9.97-16.873-10.5t-17.571,8.523l-44.244,40.309,51.894,2.133,29.3.892q17.619.537,21.769-3.421l1.414-2.01.572-2.145q.246-3.291-4.206-8.97l-7.515-8.843,5.814-5.3L1887.5,1739.3l-5.814,5.3q-12.262-12.272-23.6-16.007-15.888-5.364-42.635-6.42l-38.908-1.339-19.837,132.218a13.131,13.131,0,0,0,2.512,10.874l2.04,2.831-5.814,5.3-62.393-68.485,5.815-5.3,6.678,6.539,4.344,3.976q4.431,4.077,7.972,1.032,2.946-2.5,5-14.109l11.9-77.2-9.415-.439-35.968,32.767a38.6,38.6,0,0,0-5.956,6.329q-8.794,10.534-1.286,21.548l5.424,7.14-5.814,5.3-63.29-69.471,5.814-5.3q8.8,9.657,15.453,10.627,8.337,1.239,17.316-7.12l92.627-84.386q10.165-9.624,10.185-17.124t-8.958-17.355l5.814-5.3Z" fill="#333"/><path d="M1769.859,1874.6a11.124,11.124,0,0,0,3.786,1.78l3.837.652a31.206,31.206,0,0,0,7.013-.618l7.465-2.294,168.26-61.144,5.118,5.617-74.9,167.775q-3.447,7.106-3.063,13.069l.766,3.811,1.609,3.942,2.578,3.423-5.815,5.3-61.044-67.007,5.813-5.3q10.3,11.712,16.449,11.523l2.85-.433a12.863,12.863,0,0,0,3.487-1.914,33.746,33.746,0,0,0,6.062-8.587l12.187-24.627-41.566-45.624-26.145,10.294a22.069,22.069,0,0,0-7.859,4.637q-7.837,8.221,7.334,24.874l-5.814,5.3-38.781-42.569,5.815-5.3Zm73.567-5.35,34.652,38.036,28.843-62.161Z" fill="#333"/><path d="M2068.125,1937.557l-20.743,149.633,61.094-55.659q10.051-9.157,10.7-16.958l-.3-3.695a22.731,22.731,0,0,0-1.817-5.557,55.625,55.625,0,0,0-6.268-9.256l5.814-5.3,41.026,45.032-5.815,5.3q-8.086-6.7-13.091-8.63l-4.2-1.044a11.719,11.719,0,0,0-7.826,1.9q-7.539,3.8-10.412,6.781l-116.572,106.2-5.207-5.716,27.782-191.389-80.309,73.164q-15.194,14.2-12.268,24.34l1.5,4.222a41.372,41.372,0,0,0,6.089,9.058l-5.814,5.3-41.026-45.032,5.815-5.3q10.464,10.3,18.894,9.655,7.386-.6,19-10.816l90.458-82.411q3.069-15.235,2.371-22.536l-.694-3.334-1.447-3.371-1.958-2.544,5.814-5.3Z" fill="#333"/><path d="M2030.916,2161.156a11.146,11.146,0,0,0,3.786,1.78l3.838.652a31.262,31.262,0,0,0,7.012-.618l7.466-2.295,168.26-61.143,5.117,5.616-74.9,167.776q-3.447,7.105-3.062,13.069l.766,3.811,1.609,3.942,2.578,3.422-5.815,5.3-61.045-67.006,5.814-5.3q10.3,11.712,16.448,11.523l2.851-.433a12.887,12.887,0,0,0,3.487-1.914,33.75,33.75,0,0,0,6.061-8.588l12.187-24.626-41.565-45.624-26.145,10.294a22.07,22.07,0,0,0-7.859,4.636q-7.837,8.223,7.334,24.875l-5.814,5.3-38.781-42.569,5.814-5.3Zm73.567-5.35,34.652,38.036,28.843-62.162Z" fill="#333"/><path d="M2157.515,2301.7a65.613,65.613,0,0,0,8.239,7.46,12.64,12.64,0,0,0,5.159,2.694l3.847.463,3.031-.238a19.156,19.156,0,0,0,5.189-2.023,38.794,38.794,0,0,0,7.7-5.208l91.937-83.758,4.765-5.062q5.694-6.813,5.653-12l-.308-3.507q-1.5-6.391-8.587-14.175l5.814-5.3,65.085,71.441a214.416,214.416,0,0,1,14.806,18.429,66.079,66.079,0,0,1,9.072,18.964,47.787,47.787,0,0,1,1.953,19.86,42.059,42.059,0,0,1-5.668,16.342,48.677,48.677,0,0,1-9.2,11.272,46.906,46.906,0,0,1-12.366,8.2,39.1,39.1,0,0,1-11.67,3.419q-15.772,2.284-30.575-6.047l-8.892-5.6-19.276,87.707q-1.909,8.592.939,14.292l2.633,4.274-5.815,5.3-38.153-41.88,23.331-101.86-4.309-4.73-37.149,33.844a59.066,59.066,0,0,0-10.049,11.138,12.263,12.263,0,0,0-2.29,4.612l-.608,2.9a10.433,10.433,0,0,0,.351,4.638,13.971,13.971,0,0,0,1.874,4.333,44.825,44.825,0,0,0,6.834,9.284l-5.814,5.3L2151.7,2307Zm112.112-8.369q14.19,15.382,23.432,19.585,14.407,6.711,29.391-2.972a74.554,74.554,0,0,0,10.177-7.83l7.023-6.938a50.185,50.185,0,0,0,7.682-10.966q8.277-15.653-7.531-32.81-6.932-7.21-11.826-7.439l-2.089.28a16.338,16.338,0,0,0-6.793,4.025Z" fill="#333"/><path d="M2523.63,2437.544l-42.569,38.782-5.3-5.814q16.529-20.649,16.345-35.9t-17.38-35.109l-107.408,97.852q-15.741,13.8-5.736,27.947l5.1,5.993-5.815,5.3-63.29-69.47,5.815-5.3,6.569,6.817q11.893,10.083,27.283-4.3l107.408-97.852q-9.087-9.576-15.77-13.945A36.532,36.532,0,0,0,2416,2347.7q-19.517-4.4-41.943,11.163l-5.3-5.814,42.569-38.782Z" fill="#333"/><path d="M2530.811,2445.427l44.348,48.679,13.017,14.288a207,207,0,0,1,18.857,24.657q22.506,35.392,7.62,75.465a97.231,97.231,0,0,1-26.016,37.949q-25.713,23.241-58.8,25.523t-60.349-20.124a262.013,262.013,0,0,1-29.442-28.359l-7.451-8.178-40.039-43.949,5.815-5.3,4.074,3.68q7.8,6.781,13.543,7.048t14.085-6.61l7.569-6.536,74.4-67.779,8.582-8q9.942-8.878,11.928-15.014,3.056-8.916-4.251-18.126l-3.3-4.023Zm-64.47,152.5-8.672,7.9q-7.078,6.087-6.44,10.646t6.66,10.972q35.891,39.8,98.267-17.032a169.654,169.654,0,0,0,22.785-25.266q28.92-39.513,1.27-69.862-6.034-6.227-10.44-6.808t-10.8,5.064l-6.8,6.194Z" fill="#333"/><path d="M2608.892,2647.125a80.781,80.781,0,0,1,15.764-8.231,96.354,96.354,0,0,1,28.184-7.463,90.007,90.007,0,0,1,29.843,1.483,100.54,100.54,0,0,1,26.238,10,103.958,103.958,0,0,1,26.663,21.15q27.828,30.547,25.76,69.941t-32.331,67.142q-24.646,22.63-56.516,26.242a83.1,83.1,0,0,1-27.87-1.3q-31.141-6.074-54.481-31.693a105.123,105.123,0,0,1-18.428-27.751q-13.547-29.314-5.991-59.82,6.991-28.548,32.2-51.153a70.542,70.542,0,0,1,10.966-8.548m21.711,44.416a204.593,204.593,0,0,0-24.809,26.209q-33.261,41.48-7.413,70.048a42.664,42.664,0,0,0,12.944,9.755,35.348,35.348,0,0,0,14.831,3.71q28.917,1.063,69.589-35.449,23.46-21.552,34.288-43.318,15.612-31.356-2.861-52.031-16.788-18.428-42.471-11.98-19.471,4.756-40.642,21.7a171.288,171.288,0,0,0-13.456,11.358" fill="#333"/><path d="M2870.959,2818.792l-5.814,5.3q-9.446-9.971-16.873-10.505t-17.571,8.523l-44.244,40.309,51.894,2.133,29.3.892q17.619.537,21.769-3.421l1.414-2.01.572-2.145q.246-3.291-4.207-8.97l-7.514-8.843,5.814-5.3,52.966,58.139-5.814,5.3q-12.263-12.271-23.6-16.007-15.888-5.364-42.635-6.419l-38.908-1.34-19.837,132.218a13.13,13.13,0,0,0,2.512,10.874l2.04,2.831-5.815,5.3-62.392-68.485,5.815-5.3,6.678,6.539,4.344,3.977q4.431,4.077,7.972,1.032,2.946-2.5,5-14.11l11.9-77.2-9.415-.439-35.968,32.767a38.555,38.555,0,0,0-5.956,6.329q-8.795,10.534-1.286,21.549l5.424,7.139-5.814,5.3-63.29-69.47,5.814-5.3q8.8,9.657,15.453,10.627,8.337,1.239,17.316-7.12l92.627-84.386q10.164-9.623,10.185-17.124t-8.958-17.355l5.814-5.3Z" fill="#333"/><path d="M2820.824,3028.2a11.136,11.136,0,0,0,3.786,1.78l3.838.652a31.266,31.266,0,0,0,7.012-.618l7.466-2.3,168.26-61.143,5.117,5.616-74.9,167.776q-3.447,7.106-3.062,13.069l.766,3.811,1.609,3.942,2.578,3.423-5.815,5.3-61.045-67.006,5.814-5.3q10.3,11.712,16.448,11.523l2.851-.433a12.9,12.9,0,0,0,3.487-1.914,33.763,33.763,0,0,0,6.061-8.587l12.187-24.627-41.565-45.624-26.145,10.294a22.081,22.081,0,0,0-7.859,4.636q-7.839,8.223,7.334,24.875l-5.814,5.3-38.781-42.569,5.814-5.3Zm73.567-5.35,34.652,38.036,28.843-62.162Z" fill="#333"/><path d="M3119.091,3091.155l-20.744,149.633,61.094-55.659q10.052-9.157,10.7-16.958l-.3-3.695a22.687,22.687,0,0,0-1.818-5.557,55.557,55.557,0,0,0-6.268-9.256l5.814-5.3,41.027,45.032-5.814,5.3q-8.09-6.7-13.092-8.63l-4.2-1.044a11.712,11.712,0,0,0-7.826,1.9q-7.541,3.8-10.412,6.781l-116.573,106.2-5.207-5.716,27.783-191.389-80.309,73.164q-15.2,14.2-12.269,24.34l1.5,4.222a41.34,41.34,0,0,0,6.089,9.058l-5.815,5.3-41.025-45.032,5.814-5.3q10.466,10.3,18.894,9.655,7.388-.6,19-10.816l90.459-82.411q3.067-15.235,2.37-22.536l-.693-3.334-1.448-3.371-1.958-2.544,5.815-5.3Z" fill="#333"/><path d="M737.782,1228.183a11.128,11.128,0,0,0,3.785,1.78l3.838.652a31.249,31.249,0,0,0,7.012-.618l7.466-2.295,168.26-61.143,5.117,5.616-74.9,167.776q-3.447,7.105-3.062,13.069l.766,3.811,1.609,3.942,2.578,3.423-5.815,5.3-61.045-67.006,5.814-5.3q10.3,11.712,16.449,11.523l2.851-.433a12.906,12.906,0,0,0,3.486-1.914,33.762,33.762,0,0,0,6.061-8.587l12.187-24.627-41.565-45.624-26.145,10.294a22.053,22.053,0,0,0-7.859,4.637q-7.837,8.221,7.335,24.874l-5.815,5.3-38.781-42.569,5.814-5.3Zm73.566-5.35L846,1260.869l28.843-62.162Z" fill="#333"/><path d="M864.38,1368.728a65.553,65.553,0,0,0,8.239,7.46,12.645,12.645,0,0,0,5.159,2.7l3.847.461,3.031-.236a19.228,19.228,0,0,0,5.189-2.024,38.749,38.749,0,0,0,7.7-5.208l91.937-83.757,4.765-5.063q5.694-6.813,5.653-12l-.308-3.506q-1.5-6.391-8.587-14.175l5.814-5.3,65.085,71.442a214.245,214.245,0,0,1,14.806,18.429,66.089,66.089,0,0,1,9.072,18.964,47.813,47.813,0,0,1,1.953,19.861,42.094,42.094,0,0,1-5.667,16.342,48.775,48.775,0,0,1-9.206,11.272,46.954,46.954,0,0,1-12.366,8.2,39.067,39.067,0,0,1-11.671,3.419q-15.771,2.285-30.574-6.046l-8.892-5.6-19.276,87.707q-1.91,8.591.939,14.292l2.633,4.274-5.815,5.3-38.153-41.879,23.331-101.861-4.309-4.73L931.558,1401.3a59.012,59.012,0,0,0-10.049,11.139,12.257,12.257,0,0,0-2.29,4.612l-.608,2.9a10.438,10.438,0,0,0,.351,4.639,13.975,13.975,0,0,0,1.874,4.333,44.758,44.758,0,0,0,6.834,9.282l-5.814,5.3-63.29-69.471Zm112.112-8.369q14.19,15.383,23.432,19.586,14.407,6.71,29.39-2.973a74.562,74.562,0,0,0,10.178-7.829l7.023-6.938a50.237,50.237,0,0,0,7.682-10.966q8.277-15.656-7.531-32.811-6.931-7.209-11.826-7.438l-2.089.28a16.327,16.327,0,0,0-6.793,4.024Z" fill="#333"/><path d="M1230.495,1504.571l-42.569,38.782-5.3-5.814q16.528-20.649,16.345-35.9t-17.38-35.109l-107.408,97.852q-15.741,13.8-5.736,27.947l5.1,5.993-5.815,5.3-63.289-69.47,5.814-5.3,6.57,6.817q11.892,10.083,27.282-4.3l107.408-97.852q-9.087-9.576-15.77-13.945a36.535,36.535,0,0,0-12.89-4.846q-19.518-4.4-41.944,11.163l-5.3-5.814,42.569-38.782Z" fill="#333"/><path d="M1237.677,1512.454l44.347,48.679,13.018,14.288a207.073,207.073,0,0,1,18.856,24.657q22.506,35.392,7.621,75.465a97.229,97.229,0,0,1-26.017,37.948q-25.713,23.242-58.8,25.524t-60.349-20.124a262.084,262.084,0,0,1-29.442-28.359l-7.451-8.178-40.038-43.949,5.814-5.3,4.074,3.681q7.8,6.782,13.543,7.048t14.085-6.61l7.569-6.536,74.4-67.779,8.582-8q9.942-8.878,11.928-15.014,3.055-8.916-4.251-18.126l-3.3-4.023Zm-64.471,152.5-8.671,7.9q-7.08,6.087-6.441,10.646t6.66,10.972q35.891,39.8,98.268-17.032a169.707,169.707,0,0,0,22.784-25.266q28.92-39.513,1.27-69.862-6.033-6.227-10.44-6.808t-10.8,5.064l-6.8,6.195Z" fill="#333"/><path d="M1315.757,1714.152a80.788,80.788,0,0,1,15.764-8.232,96.383,96.383,0,0,1,28.184-7.462,90.01,90.01,0,0,1,29.843,1.482,100.585,100.585,0,0,1,26.238,10,103.947,103.947,0,0,1,26.663,21.152q27.829,30.546,25.76,69.94t-32.331,67.141q-24.645,22.632-56.516,26.243a83.1,83.1,0,0,1-27.87-1.3q-31.141-6.073-54.48-31.692a105.137,105.137,0,0,1-18.429-27.751q-13.547-29.316-5.991-59.82,6.992-28.548,32.2-51.154a70.542,70.542,0,0,1,10.966-8.547m21.711,44.415a204.515,204.515,0,0,0-24.809,26.21q-33.261,41.478-7.413,70.047a42.655,42.655,0,0,0,12.944,9.756,35.335,35.335,0,0,0,14.831,3.71q28.917,1.063,69.589-35.449,23.46-21.553,34.288-43.319,15.612-31.356-2.861-52.031-16.788-18.426-42.471-11.979-19.472,4.757-40.642,21.7a171.988,171.988,0,0,0-13.456,11.358" fill="#333"/><path d="M1577.824,1885.819l-5.814,5.3q-9.445-9.97-16.873-10.505t-17.571,8.523l-44.244,40.309,51.894,2.133,29.3.892q17.62.537,21.769-3.421l1.414-2.01.572-2.145q.246-3.291-4.206-8.97l-7.515-8.843,5.814-5.3,52.966,58.139-5.814,5.3q-12.263-12.273-23.6-16.008-15.888-5.364-42.634-6.419l-38.909-1.34-19.837,132.218a13.13,13.13,0,0,0,2.512,10.874l2.04,2.831-5.814,5.3-62.393-68.486,5.815-5.3,6.678,6.539,4.344,3.977q4.431,4.077,7.972,1.032,2.946-2.505,5-14.11l11.9-77.2-9.415-.44-35.968,32.767a38.585,38.585,0,0,0-5.956,6.329q-8.795,10.534-1.286,21.549l5.424,7.139-5.814,5.3-63.29-69.47,5.814-5.3q8.8,9.657,15.453,10.627,8.337,1.239,17.316-7.12l92.627-84.386q10.165-9.623,10.185-17.124t-8.958-17.355l5.814-5.3Z" fill="#333"/><path d="M1527.69,2095.229a11.134,11.134,0,0,0,3.785,1.78l3.838.652a31.185,31.185,0,0,0,7.012-.618l7.467-2.295,168.259-61.143,5.117,5.616L1648.268,2207q-3.447,7.105-3.062,13.069l.766,3.811,1.609,3.942,2.578,3.423-5.815,5.3-61.045-67.007,5.814-5.3q10.3,11.712,16.449,11.523l2.851-.433a12.9,12.9,0,0,0,3.486-1.914,33.757,33.757,0,0,0,6.061-8.587l12.187-24.627-41.565-45.624-26.145,10.294a22.071,22.071,0,0,0-7.859,4.637q-7.837,8.222,7.333,24.874l-5.813,5.3-38.781-42.569,5.814-5.3Zm73.566-5.35,34.652,38.036,28.843-62.162Z" fill="#333"/><path d="M1825.955,2158.182l-20.743,149.633,61.094-55.659q10.051-9.157,10.7-16.958l-.3-3.7a22.725,22.725,0,0,0-1.818-5.557,55.574,55.574,0,0,0-6.268-9.256l5.814-5.3,41.026,45.032-5.814,5.3q-8.088-6.7-13.092-8.63l-4.2-1.044a11.713,11.713,0,0,0-7.826,1.9q-7.539,3.8-10.411,6.781l-116.573,106.2-5.207-5.716,27.783-191.389-80.31,73.164q-15.194,14.2-12.268,24.34l1.5,4.222a41.355,41.355,0,0,0,6.088,9.058l-5.814,5.3-41.025-45.032,5.814-5.3q10.465,10.3,18.894,9.655,7.386-.6,19-10.816L1782.458,2152q3.069-15.235,2.371-22.536l-.694-3.334-1.447-3.371-1.958-2.544,5.815-5.3Z" fill="#333"/><path d="M1846.381,2445.043a11.127,11.127,0,0,0,3.785,1.78l3.838.652a31.2,31.2,0,0,0,7.012-.618l7.467-2.295,168.259-61.143,5.117,5.616-74.9,167.776q-3.447,7.106-3.062,13.069l.766,3.811,1.609,3.942,2.578,3.423-5.815,5.3-61.045-67.006,5.814-5.3q10.3,11.712,16.449,11.523l2.851-.433a12.9,12.9,0,0,0,3.486-1.914,33.76,33.76,0,0,0,6.061-8.587l12.187-24.627-41.565-45.624-26.145,10.294a22.085,22.085,0,0,0-7.859,4.636q-7.838,8.223,7.334,24.875l-5.814,5.3-38.781-42.569,5.814-5.3Zm73.566-5.35,34.652,38.036,28.843-62.162Z" fill="#333"/><path d="M1972.979,2585.588a65.619,65.619,0,0,0,8.239,7.46,12.648,12.648,0,0,0,5.159,2.694l3.847.462,3.031-.237a19.185,19.185,0,0,0,5.189-2.023,38.808,38.808,0,0,0,7.7-5.208l91.937-83.758,4.765-5.062q5.694-6.813,5.653-12l-.308-3.506q-1.5-6.391-8.587-14.176l5.814-5.3,65.085,71.442a214.4,214.4,0,0,1,14.806,18.428,66.072,66.072,0,0,1,9.072,18.965,47.788,47.788,0,0,1,1.953,19.86,42.066,42.066,0,0,1-5.668,16.342,48.693,48.693,0,0,1-9.205,11.272,46.934,46.934,0,0,1-12.366,8.2,39.1,39.1,0,0,1-11.67,3.419q-15.773,2.284-30.575-6.047l-8.892-5.6-19.276,87.707q-1.909,8.592.939,14.292l2.633,4.274-5.815,5.3-38.153-41.88,23.331-101.86-4.309-4.73-37.149,33.844a59.014,59.014,0,0,0-10.049,11.138,12.263,12.263,0,0,0-2.29,4.612l-.608,2.9a10.437,10.437,0,0,0,.351,4.639,13.957,13.957,0,0,0,1.874,4.333,44.783,44.783,0,0,0,6.834,9.283l-5.814,5.3-63.29-69.471Zm112.112-8.369q14.19,15.383,23.432,19.585,14.407,6.711,29.39-2.972a74.575,74.575,0,0,0,10.178-7.83l7.023-6.938a50.239,50.239,0,0,0,7.682-10.966q8.277-15.654-7.531-32.81-6.931-7.211-11.826-7.439l-2.089.28a16.332,16.332,0,0,0-6.793,4.025Z" fill="#333"/><path d="M2339.094,2721.431l-42.569,38.782-5.3-5.814q16.529-20.649,16.344-35.9t-17.379-35.109l-107.408,97.852q-15.741,13.8-5.736,27.947l5.1,5.993-5.814,5.3-63.29-69.47,5.815-5.3,6.569,6.817q11.893,10.083,27.283-4.3l107.408-97.852q-9.087-9.576-15.77-13.945a36.531,36.531,0,0,0-12.891-4.846q-19.516-4.4-41.943,11.163l-5.3-5.814,42.569-38.782Z" fill="#333"/><rect width="28.659" height="75.181" transform="matrix(0.739, -0.673, 0.673, 0.739, 2249.122, 2823.775)" fill="#333"/><path d="M622.593,1323.747l44.347,48.679,13.018,14.288a207.093,207.093,0,0,1,18.856,24.657q22.506,35.392,7.621,75.465a97.231,97.231,0,0,1-26.017,37.948q-25.713,23.242-58.8,25.524t-60.349-20.124a262.084,262.084,0,0,1-29.442-28.359l-7.451-8.178L484.342,1449.7l5.814-5.3,4.074,3.681q7.8,6.78,13.543,7.048t14.085-6.61l7.569-6.536,74.4-67.779,8.582-8q9.942-8.879,11.928-15.014,3.055-8.916-4.251-18.126l-3.3-4.023Zm-64.471,152.5-8.671,7.9q-7.08,6.087-6.441,10.646t6.66,10.972q35.891,39.795,98.268-17.032a169.662,169.662,0,0,0,22.784-25.267q28.92-39.511,1.27-69.861-6.033-6.227-10.44-6.808t-10.8,5.064l-6.8,6.194Z" fill="#333"/><path d="M700.673,1525.445a80.791,80.791,0,0,1,15.764-8.231,96.347,96.347,0,0,1,28.184-7.463,90.01,90.01,0,0,1,29.843,1.483,100.546,100.546,0,0,1,26.238,10,103.959,103.959,0,0,1,26.663,21.15q27.83,30.547,25.76,69.941t-32.331,67.142q-24.645,22.631-56.516,26.242a83.1,83.1,0,0,1-27.87-1.3q-31.142-6.074-54.481-31.693a105.125,105.125,0,0,1-18.428-27.751q-13.547-29.314-5.991-59.82,6.992-28.548,32.2-51.153a70.613,70.613,0,0,1,10.966-8.548m21.711,44.416a204.583,204.583,0,0,0-24.809,26.209q-33.261,41.48-7.413,70.048a42.656,42.656,0,0,0,12.944,9.755,35.334,35.334,0,0,0,14.831,3.71q28.917,1.063,69.589-35.449,23.46-21.552,34.288-43.318,15.612-31.356-2.861-52.031-16.788-18.428-42.471-11.979-19.472,4.755-40.642,21.7a171.8,171.8,0,0,0-13.456,11.358" fill="#333"/><path d="M962.74,1697.112l-5.814,5.3q-9.445-9.971-16.873-10.5t-17.571,8.522l-44.244,40.309,51.894,2.133,29.3.892q17.619.537,21.769-3.421l1.414-2.01.572-2.144q.246-3.293-4.206-8.971l-7.515-8.843,5.814-5.3,52.966,58.139-5.814,5.3q-12.263-12.272-23.6-16.007-15.888-5.364-42.634-6.419l-38.909-1.34-19.837,132.218a13.134,13.134,0,0,0,2.512,10.874l2.04,2.831-5.814,5.3L835.8,1835.479l5.815-5.3,6.678,6.539,4.344,3.977q4.431,4.078,7.972,1.032,2.946-2.5,5-14.11l11.9-77.2-9.415-.44-35.968,32.768a38.591,38.591,0,0,0-5.956,6.328q-8.794,10.534-1.286,21.549l5.424,7.139-5.814,5.3-63.29-69.469,5.814-5.3q8.8,9.657,15.453,10.627,8.337,1.241,17.316-7.12l92.627-84.386q10.165-9.624,10.185-17.124t-8.958-17.355l5.814-5.3Z" fill="#333"/><path d="M912.6,1906.522a11.128,11.128,0,0,0,3.785,1.78l3.838.652a31.256,31.256,0,0,0,7.012-.618l7.467-2.3,168.259-61.143,5.117,5.616-74.9,167.776q-3.447,7.105-3.062,13.069l.766,3.811,1.609,3.942,2.578,3.423-5.815,5.3-61.045-67.006,5.814-5.3q10.3,11.712,16.449,11.523l2.851-.433a12.9,12.9,0,0,0,3.486-1.914,33.762,33.762,0,0,0,6.061-8.587l12.187-24.627L973.5,1905.866l-26.145,10.294a22.053,22.053,0,0,0-7.859,4.637q-7.837,8.221,7.335,24.874l-5.815,5.3L902.232,1908.4l5.814-5.3Zm73.566-5.35,34.652,38.036,28.843-62.162Z" fill="#333"/><path d="M1210.871,1969.475l-20.743,149.633,61.094-55.659q10.051-9.157,10.7-16.959l-.3-3.694a22.766,22.766,0,0,0-1.818-5.557,55.6,55.6,0,0,0-6.268-9.256l5.814-5.3,41.026,45.032-5.814,5.3q-8.088-6.7-13.092-8.63l-4.2-1.044a11.713,11.713,0,0,0-7.826,1.9q-7.539,3.8-10.412,6.781l-116.572,106.2-5.207-5.716,27.782-191.389-80.309,73.164q-15.193,14.2-12.268,24.34l1.5,4.222a41.387,41.387,0,0,0,6.088,9.058l-5.814,5.3-41.025-45.032,5.814-5.3q10.465,10.3,18.894,9.655,7.386-.6,19-10.816l90.458-82.411q3.069-15.235,2.371-22.536l-.694-3.335-1.447-3.37-1.958-2.544,5.814-5.3Z" fill="#333"/><path d="M1173.663,2193.073a11.132,11.132,0,0,0,3.785,1.78l3.838.652a31.185,31.185,0,0,0,7.012-.618l7.467-2.293,168.259-61.145,5.117,5.616-74.9,167.776q-3.447,7.105-3.062,13.069l.766,3.811,1.609,3.942,2.578,3.423-5.814,5.3-61.046-67.007,5.814-5.3q10.3,11.712,16.449,11.523l2.851-.433a12.9,12.9,0,0,0,3.486-1.914,33.737,33.737,0,0,0,6.061-8.587l12.187-24.626-41.565-45.625-26.145,10.294a22.088,22.088,0,0,0-7.859,4.637q-7.837,8.222,7.335,24.874l-5.815,5.3-38.781-42.569,5.814-5.3Zm73.566-5.35,34.652,38.036,28.843-62.162Z" fill="#333"/><path d="M1300.261,2333.619a65.619,65.619,0,0,0,8.239,7.46,12.648,12.648,0,0,0,5.159,2.694l3.847.462,3.031-.237a19.183,19.183,0,0,0,5.189-2.023,38.8,38.8,0,0,0,7.7-5.208l91.937-83.758,4.765-5.062q5.694-6.813,5.653-12l-.308-3.506q-1.5-6.391-8.587-14.176l5.814-5.3,65.086,71.442a214.471,214.471,0,0,1,14.8,18.429,66.063,66.063,0,0,1,9.072,18.964,47.791,47.791,0,0,1,1.953,19.86,42.08,42.08,0,0,1-5.667,16.342,48.723,48.723,0,0,1-9.206,11.272,46.93,46.93,0,0,1-12.366,8.2,39.1,39.1,0,0,1-11.671,3.419q-15.771,2.284-30.574-6.047l-8.892-5.6-19.276,87.707q-1.91,8.592.939,14.292l2.633,4.274-5.814,5.3-38.154-41.88,23.331-101.86-4.309-4.73-37.149,33.844a59.014,59.014,0,0,0-10.049,11.138,12.264,12.264,0,0,0-2.29,4.612l-.608,2.9a10.437,10.437,0,0,0,.351,4.639,13.96,13.96,0,0,0,1.874,4.333,44.788,44.788,0,0,0,6.834,9.283l-5.814,5.3-63.29-69.471Zm112.112-8.369q14.19,15.382,23.432,19.585,14.407,6.711,29.39-2.972a74.588,74.588,0,0,0,10.178-7.83l7.023-6.938a50.235,50.235,0,0,0,7.682-10.966q8.277-15.654-7.531-32.81-6.931-7.211-11.826-7.439l-2.089.28a16.33,16.33,0,0,0-6.793,4.025Z" fill="#333"/><path d="M1666.376,2469.462l-42.569,38.782-5.3-5.814q16.529-20.649,16.344-35.9t-17.379-35.109l-107.408,97.852q-15.741,13.8-5.736,27.947l5.1,5.993-5.815,5.3-63.289-69.47,5.814-5.3,6.57,6.817q11.892,10.083,27.282-4.3l107.408-97.852q-9.087-9.576-15.77-13.945a36.54,36.54,0,0,0-12.89-4.846q-19.519-4.4-41.944,11.163l-5.3-5.814,42.569-38.782Z" fill="#333"/><path d="M1673.558,2477.345l44.347,48.679,13.018,14.288a207.1,207.1,0,0,1,18.856,24.657q22.506,35.392,7.621,75.465a97.243,97.243,0,0,1-26.017,37.949q-25.713,23.241-58.8,25.523t-60.349-20.124a262.1,262.1,0,0,1-29.442-28.359l-7.451-8.178-40.038-43.949,5.814-5.3,4.074,3.68q7.8,6.781,13.543,7.048t14.085-6.61l7.569-6.536,74.4-67.779,8.582-8q9.942-8.878,11.928-15.014,3.056-8.916-4.251-18.126l-3.3-4.023Zm-64.471,152.5-8.671,7.9q-7.08,6.087-6.441,10.646t6.66,10.972q35.891,39.8,98.268-17.032a169.693,169.693,0,0,0,22.784-25.266q28.92-39.513,1.27-69.862-6.033-6.227-10.44-6.808t-10.8,5.064l-6.8,6.194Z" fill="#333"/><path d="M1751.638,2679.042a80.786,80.786,0,0,1,15.764-8.231,96.353,96.353,0,0,1,28.184-7.463,90.013,90.013,0,0,1,29.843,1.483,100.54,100.54,0,0,1,26.238,10,103.957,103.957,0,0,1,26.663,21.15q27.83,30.547,25.76,69.941t-32.331,67.142q-24.645,22.63-56.516,26.242a83.1,83.1,0,0,1-27.87-1.3q-31.141-6.074-54.481-31.693a105.126,105.126,0,0,1-18.428-27.751q-13.547-29.314-5.991-59.82,6.992-28.548,32.2-51.153a70.556,70.556,0,0,1,10.966-8.548m21.711,44.416a204.583,204.583,0,0,0-24.809,26.209q-33.261,41.48-7.413,70.048a42.654,42.654,0,0,0,12.944,9.755,35.347,35.347,0,0,0,14.831,3.71q28.917,1.063,69.589-35.449,23.46-21.552,34.288-43.318,15.612-31.356-2.861-52.031-16.788-18.428-42.471-11.98-19.472,4.756-40.642,21.7a171.543,171.543,0,0,0-13.456,11.358" fill="#333"/><path d="M2013.7,2850.71l-5.814,5.3q-9.445-9.97-16.873-10.505t-17.571,8.523l-44.244,40.309,51.894,2.133,29.3.892q17.619.537,21.769-3.421l1.414-2.01.572-2.145q.246-3.291-4.206-8.97l-7.515-8.843,5.814-5.3,52.966,58.139-5.814,5.3q-12.262-12.271-23.6-16.007-15.888-5.364-42.634-6.419l-38.909-1.34L1950.42,3038.56a13.13,13.13,0,0,0,2.512,10.874l2.04,2.831-5.814,5.3-62.393-68.485,5.815-5.3,6.678,6.539,4.344,3.977q4.431,4.077,7.972,1.032,2.946-2.5,5-14.11l11.9-77.2-9.415-.439-35.968,32.767a38.6,38.6,0,0,0-5.956,6.329q-8.795,10.534-1.286,21.549l5.424,7.139-5.814,5.3-63.29-69.47,5.814-5.3q8.8,9.657,15.453,10.627,8.337,1.239,17.316-7.12l92.627-84.386q10.165-9.622,10.185-17.124t-8.958-17.355l5.814-5.3Z" fill="#333"/><path d="M1963.571,3060.12a11.127,11.127,0,0,0,3.785,1.78l3.837.652a31.266,31.266,0,0,0,7.013-.618l7.466-2.3,168.259-61.143,5.118,5.616-74.9,167.776q-3.445,7.106-3.062,13.069l.767,3.811,1.608,3.942,2.578,3.423-5.813,5.3-61.046-67.006,5.814-5.3q10.3,11.712,16.449,11.523l2.851-.433a12.911,12.911,0,0,0,3.486-1.914,33.817,33.817,0,0,0,6.061-8.587l12.187-24.627-41.565-45.624-26.145,10.294a22.094,22.094,0,0,0-7.86,4.636q-7.836,8.223,7.334,24.875l-5.813,5.3L1953.2,3062l5.814-5.3Zm73.566-5.35,34.652,38.036,28.843-62.162Z" fill="#333"/><path d="M2261.836,3123.073l-20.743,149.633,61.094-55.659q10.051-9.158,10.7-16.958l-.3-3.7a22.775,22.775,0,0,0-1.818-5.557,55.572,55.572,0,0,0-6.268-9.256l5.814-5.3,41.026,45.032-5.814,5.3q-8.088-6.7-13.092-8.63l-4.2-1.044a11.715,11.715,0,0,0-7.826,1.9q-7.539,3.8-10.411,6.781l-116.573,106.2-5.207-5.716L2216,3134.716l-80.31,73.164q-15.193,14.2-12.268,24.34l1.5,4.222a41.373,41.373,0,0,0,6.088,9.058l-5.814,5.3-41.025-45.032,5.814-5.3q10.466,10.3,18.894,9.655,7.386-.6,19-10.816l90.458-82.411q3.069-15.235,2.371-22.536l-.694-3.334-1.447-3.371-1.958-2.544,5.815-5.3Z" fill="#333"/><path d="M2224.628,3346.671a11.122,11.122,0,0,0,3.785,1.78l3.838.652a31.2,31.2,0,0,0,7.012-.618l7.467-2.3,168.259-61.143,5.117,5.616-74.9,167.776q-3.447,7.106-3.062,13.069l.766,3.811,1.609,3.942,2.578,3.423-5.815,5.3-61.045-67.006,5.814-5.3q10.307,11.712,16.449,11.523l2.851-.433a12.907,12.907,0,0,0,3.486-1.914,33.739,33.739,0,0,0,6.061-8.587l12.187-24.627-41.565-45.624-26.145,10.294a22.088,22.088,0,0,0-7.859,4.636q-7.838,8.223,7.335,24.875l-5.814,5.3-38.782-42.569,5.814-5.3Zm73.566-5.35,34.652,38.036,28.843-62.162Z" fill="#333"/><path d="M2351.226,3487.216a65.554,65.554,0,0,0,8.239,7.461,12.642,12.642,0,0,0,5.159,2.694l3.847.462,3.031-.237a19.186,19.186,0,0,0,5.189-2.023,38.794,38.794,0,0,0,7.7-5.208l91.937-83.758,4.765-5.062q5.694-6.813,5.653-12l-.308-3.506q-1.5-6.391-8.587-14.176l5.814-5.3L2548.748,3438a214.635,214.635,0,0,1,14.806,18.428,66.081,66.081,0,0,1,9.072,18.965,47.793,47.793,0,0,1,1.953,19.86,42.069,42.069,0,0,1-5.668,16.342,48.7,48.7,0,0,1-9.2,11.272,46.939,46.939,0,0,1-12.366,8.2,39.093,39.093,0,0,1-11.671,3.419q-15.771,2.284-30.574-6.047l-8.892-5.6-19.276,87.707q-1.909,8.592.939,14.292l2.633,4.274-5.815,5.3-38.153-41.88,23.331-101.86-4.309-4.73-37.149,33.844a59.008,59.008,0,0,0-10.049,11.138,12.261,12.261,0,0,0-2.29,4.612l-.608,2.9a10.42,10.42,0,0,0,.351,4.639,13.968,13.968,0,0,0,1.874,4.333,44.783,44.783,0,0,0,6.834,9.283l-5.814,5.3-63.29-69.471Zm112.112-8.368q14.19,15.383,23.432,19.585,14.407,6.711,29.39-2.972a74.578,74.578,0,0,0,10.178-7.83l7.023-6.938a50.25,50.25,0,0,0,7.682-10.966q8.277-15.654-7.531-32.81-6.931-7.21-11.826-7.439l-2.089.28a16.33,16.33,0,0,0-6.793,4.025Z" fill="#333"/><path d="M2717.341,3623.06l-42.569,38.782-5.3-5.814q16.528-20.649,16.345-35.9t-17.38-35.109l-107.408,97.852q-15.739,13.8-5.736,27.947l5.1,5.993-5.815,5.3-63.289-69.47,5.814-5.3,6.57,6.817q11.892,10.083,27.282-4.3l107.408-97.852q-9.087-9.576-15.77-13.945a36.524,36.524,0,0,0-12.89-4.846q-19.518-4.4-41.944,11.163l-5.3-5.814,42.569-38.782Z" fill="#333"/><rect width="28.659" height="75.181" transform="matrix(0.739, -0.673, 0.673, 0.739, 2627.369, 3725.403)" fill="#333"/><path d="M380.422,1544.373l44.347,48.679,13.018,14.288A207.1,207.1,0,0,1,456.643,1632q22.506,35.393,7.621,75.465a97.248,97.248,0,0,1-26.017,37.949q-25.713,23.241-58.8,25.523T319.1,1750.81a262.2,262.2,0,0,1-29.442-28.359l-7.451-8.178-40.038-43.948,5.814-5.3,4.074,3.681q7.8,6.781,13.543,7.048t14.085-6.61l7.569-6.536,74.4-67.779,8.582-8q9.942-8.879,11.928-15.014,3.056-8.916-4.251-18.126l-3.3-4.023Zm-64.471,152.5-8.671,7.9q-7.08,6.086-6.441,10.646t6.66,10.972q35.891,39.8,98.268-17.032a169.712,169.712,0,0,0,22.784-25.266q28.92-39.513,1.27-69.862-6.033-6.228-10.44-6.808t-10.8,5.063l-6.8,6.2Z" fill="#333"/><path d="M458.5,1746.069a80.84,80.84,0,0,1,15.764-8.23,96.356,96.356,0,0,1,28.184-7.463,90.01,90.01,0,0,1,29.843,1.483,100.546,100.546,0,0,1,26.238,10,103.956,103.956,0,0,1,26.663,21.15q27.83,30.546,25.76,69.941t-32.331,67.142q-24.645,22.631-56.516,26.242a83.1,83.1,0,0,1-27.87-1.3q-31.141-6.074-54.481-31.693a105.125,105.125,0,0,1-18.428-27.751q-13.547-29.314-5.991-59.82,6.991-28.548,32.2-51.153a70.611,70.611,0,0,1,10.966-8.549m21.711,44.417a204.643,204.643,0,0,0-24.809,26.208q-33.261,41.481-7.413,70.049a42.656,42.656,0,0,0,12.944,9.755,35.366,35.366,0,0,0,14.831,3.71q28.917,1.063,69.589-35.449,23.46-21.552,34.288-43.318,15.612-31.356-2.861-52.031-16.788-18.429-42.471-11.98-19.471,4.756-40.642,21.7a171.564,171.564,0,0,0-13.456,11.358" fill="#333"/><path d="M720.569,1917.738l-5.814,5.3q-9.445-9.971-16.873-10.505t-17.571,8.523l-44.244,40.308,51.894,2.134,29.3.892q17.619.537,21.769-3.421l1.414-2.01.572-2.145q.246-3.291-4.206-8.97L729.3,1939l5.814-5.3,52.966,58.139-5.814,5.3q-12.262-12.272-23.6-16.007-15.888-5.364-42.634-6.42l-38.909-1.339-19.837,132.218a13.134,13.134,0,0,0,2.512,10.874l2.04,2.831-5.814,5.3L593.629,2056.1l5.815-5.3,6.678,6.539,4.344,3.976q4.431,4.077,7.972,1.032,2.946-2.5,5-14.109l11.9-77.2-9.415-.439-35.968,32.767a38.6,38.6,0,0,0-5.956,6.329q-8.795,10.535-1.286,21.548l5.424,7.14-5.814,5.3-63.29-69.471,5.814-5.3q8.8,9.657,15.453,10.627,8.337,1.239,17.316-7.12l92.627-84.386q10.166-9.624,10.185-17.124t-8.958-17.355l5.814-5.3Z" fill="#333"/><path d="M670.435,2127.147a11.128,11.128,0,0,0,3.785,1.78l3.838.652a31.2,31.2,0,0,0,7.012-.618l7.467-2.294L860.8,2065.523l5.117,5.616-74.9,167.776q-3.447,7.106-3.062,13.069l.766,3.811,1.609,3.942,2.578,3.423-5.815,5.3-61.045-67.007,5.814-5.3q10.305,11.712,16.449,11.523l2.851-.433a12.9,12.9,0,0,0,3.486-1.914,33.746,33.746,0,0,0,6.061-8.587l12.187-24.627-41.565-45.624-26.145,10.294a22.07,22.07,0,0,0-7.859,4.637q-7.837,8.221,7.335,24.874l-5.815,5.3-38.781-42.569,5.814-5.3ZM744,2121.8l34.652,38.036,28.843-62.161Z" fill="#333"/><path d="M968.7,2190.1l-20.743,149.633,61.094-55.659q10.051-9.157,10.7-16.958l-.3-3.7a22.73,22.73,0,0,0-1.817-5.557,55.639,55.639,0,0,0-6.268-9.256l5.814-5.3,41.026,45.032-5.814,5.3q-8.088-6.7-13.092-8.63l-4.2-1.044a11.713,11.713,0,0,0-7.826,1.9q-7.539,3.8-10.411,6.781l-116.573,106.2-5.207-5.716,27.782-191.389-80.309,73.164q-15.194,14.2-12.268,24.34l1.5,4.222a41.365,41.365,0,0,0,6.088,9.058l-5.814,5.3-41.025-45.032,5.814-5.3q10.465,10.3,18.894,9.655,7.386-.6,19-10.816l90.458-82.411q3.069-15.235,2.371-22.536l-.694-3.334-1.447-3.371-1.958-2.544,5.815-5.3Z" fill="#333"/><path d="M931.493,2413.7a11.128,11.128,0,0,0,3.785,1.78l3.838.652a31.2,31.2,0,0,0,7.012-.618l7.466-2.294,168.26-61.144,5.117,5.616-74.9,167.776q-3.447,7.106-3.062,13.069l.766,3.811,1.609,3.942,2.578,3.423-5.816,5.3L987.1,2488l5.814-5.3q10.3,11.712,16.449,11.523l2.851-.433a12.9,12.9,0,0,0,3.486-1.914,33.746,33.746,0,0,0,6.061-8.587l12.187-24.627-41.565-45.624-26.145,10.294a22.087,22.087,0,0,0-7.859,4.636q-7.837,8.223,7.334,24.875l-5.814,5.3-38.781-42.569,5.814-5.3Zm73.566-5.35,34.652,38.036,28.843-62.162Z" fill="#333"/><path d="M1058.09,2554.245a65.643,65.643,0,0,0,8.239,7.46,12.639,12.639,0,0,0,5.159,2.694l3.847.462,3.031-.237a19.173,19.173,0,0,0,5.189-2.023,38.779,38.779,0,0,0,7.7-5.208l91.937-83.758,4.765-5.062q5.694-6.813,5.653-12l-.308-3.506q-1.5-6.391-8.586-14.176l5.813-5.3,65.085,71.442a214.052,214.052,0,0,1,14.8,18.428,66.055,66.055,0,0,1,9.073,18.965,47.806,47.806,0,0,1,1.953,19.86,42.078,42.078,0,0,1-5.667,16.342,48.72,48.72,0,0,1-9.206,11.272,46.93,46.93,0,0,1-12.366,8.2,39.1,39.1,0,0,1-11.671,3.419q-15.771,2.284-30.574-6.047l-8.891-5.6-19.276,87.707q-1.911,8.592.938,14.292l2.633,4.274-5.815,5.3-38.152-41.88,23.33-101.86-4.309-4.73-37.149,33.844a59.047,59.047,0,0,0-10.049,11.138,12.279,12.279,0,0,0-2.29,4.612l-.608,2.9a10.451,10.451,0,0,0,.351,4.639,13.94,13.94,0,0,0,1.875,4.333,44.746,44.746,0,0,0,6.833,9.283l-5.814,5.3-63.29-69.471Zm112.113-8.369q14.188,15.383,23.431,19.585,14.409,6.711,29.39-2.972a74.635,74.635,0,0,0,10.179-7.83l7.022-6.938a50.2,50.2,0,0,0,7.682-10.966q8.277-15.654-7.531-32.81-6.931-7.211-11.826-7.439l-2.089.28a16.33,16.33,0,0,0-6.793,4.025Z" fill="#333"/><path d="M1424.2,2690.087l-42.569,38.782-5.3-5.814q16.529-20.649,16.344-35.9t-17.379-35.109L1267.9,2749.9q-15.741,13.8-5.736,27.947l5.1,5.993-5.815,5.3-63.29-69.47,5.815-5.3,6.569,6.817q11.893,10.083,27.283-4.3l107.408-97.852q-9.087-9.576-15.77-13.945a36.532,36.532,0,0,0-12.891-4.846q-19.516-4.4-41.943,11.163l-5.3-5.814,42.569-38.782Z" fill="#333"/><path d="M1431.387,2697.97l44.347,48.679,13.018,14.288a207.1,207.1,0,0,1,18.856,24.657q22.506,35.392,7.62,75.465a97.23,97.23,0,0,1-26.016,37.949q-25.713,23.241-58.8,25.523t-60.349-20.124a262.021,262.021,0,0,1-29.442-28.359l-7.451-8.178-40.038-43.949,5.814-5.3,4.074,3.681q7.8,6.78,13.543,7.048t14.085-6.61l7.569-6.536,74.4-67.779,8.582-8q9.942-8.878,11.928-15.014,3.055-8.916-4.251-18.126l-3.3-4.023Zm-64.471,152.5-8.672,7.9q-7.078,6.087-6.44,10.646t6.66,10.972q35.891,39.8,98.268-17.032a169.7,169.7,0,0,0,22.784-25.266q28.92-39.513,1.27-69.862-6.033-6.227-10.44-6.808t-10.8,5.064l-6.8,6.194Z" fill="#333"/><path d="M1509.467,2899.668a80.785,80.785,0,0,1,15.764-8.231,96.353,96.353,0,0,1,28.184-7.463,90.007,90.007,0,0,1,29.843,1.483,100.541,100.541,0,0,1,26.238,10,103.925,103.925,0,0,1,26.663,21.15q27.829,30.547,25.76,69.941t-32.331,67.142q-24.645,22.63-56.516,26.242a83.1,83.1,0,0,1-27.87-1.3q-31.141-6.074-54.48-31.693a105.1,105.1,0,0,1-18.429-27.751q-13.547-29.314-5.991-59.82,6.992-28.548,32.2-51.153a70.551,70.551,0,0,1,10.966-8.548m21.711,44.416a204.583,204.583,0,0,0-24.809,26.209q-33.261,41.48-7.413,70.048a42.664,42.664,0,0,0,12.944,9.755,35.347,35.347,0,0,0,14.831,3.71q28.917,1.063,69.589-35.449,23.46-21.552,34.288-43.318,15.612-31.356-2.861-52.031-16.788-18.428-42.471-11.98-19.471,4.756-40.642,21.7a171.565,171.565,0,0,0-13.456,11.358" fill="#333"/><path d="M1771.535,3071.335l-5.815,5.3q-9.445-9.972-16.872-10.505t-17.572,8.523l-44.244,40.307,51.9,2.135,29.3.891q17.62.539,21.77-3.421l1.413-2.01.572-2.144q.246-3.292-4.206-8.971l-7.515-8.843,5.815-5.3,52.965,58.14-5.814,5.3q-12.263-12.273-23.6-16.007-15.89-5.364-42.635-6.42l-38.909-1.339-19.836,132.217a13.13,13.13,0,0,0,2.511,10.874l2.041,2.831-5.814,5.3-62.394-68.486,5.816-5.3,6.678,6.539,4.344,3.977q4.43,4.077,7.971,1.032,2.946-2.5,5-14.11l11.9-77.2-9.414-.439-35.968,32.767a38.613,38.613,0,0,0-5.957,6.329q-8.795,10.533-1.286,21.548l5.425,7.14-5.815,5.3-63.289-69.469,5.813-5.3q8.8,9.657,15.453,10.626,8.337,1.24,17.317-7.12l92.626-84.385q10.165-9.625,10.185-17.125t-8.957-17.355l5.814-5.3Z" fill="#333"/><path d="M1721.4,3280.745a11.127,11.127,0,0,0,3.785,1.78l3.838.652a31.2,31.2,0,0,0,7.012-.618l7.467-2.3,168.259-61.143,5.117,5.616-74.9,167.776q-3.447,7.106-3.062,13.069l.766,3.811,1.609,3.942,2.578,3.423-5.814,5.3-61.046-67.006,5.814-5.3q10.3,11.712,16.449,11.523l2.851-.433a12.908,12.908,0,0,0,3.486-1.914,33.751,33.751,0,0,0,6.061-8.587l12.187-24.627-41.565-45.624-26.145,10.294a22.08,22.08,0,0,0-7.859,4.636q-7.837,8.223,7.335,24.875l-5.815,5.3-38.781-42.569,5.814-5.3Zm73.566-5.35,34.652,38.036,28.843-62.162Z" fill="#333"/><path d="M2019.666,3343.7l-20.743,149.633,61.094-55.659q10.051-9.158,10.7-16.958l-.3-3.7a22.734,22.734,0,0,0-1.817-5.557,55.629,55.629,0,0,0-6.268-9.256l5.814-5.3,41.026,45.032-5.814,5.3q-8.088-6.7-13.092-8.63l-4.2-1.044a11.715,11.715,0,0,0-7.826,1.9q-7.539,3.8-10.412,6.781l-116.572,106.2-5.207-5.716,27.782-191.389-80.309,73.164q-15.194,14.2-12.268,24.34l1.5,4.222a41.37,41.37,0,0,0,6.088,9.058l-5.814,5.3-41.025-45.032,5.814-5.3q10.466,10.3,18.894,9.655,7.386-.6,19-10.816l90.458-82.411q3.069-15.235,2.371-22.536l-.694-3.334-1.447-3.371-1.958-2.544,5.814-5.3Z" fill="#333"/><path d="M1982.457,3567.3a11.13,11.13,0,0,0,3.786,1.779l3.838.653a31.209,31.209,0,0,0,7.012-.619l7.466-2.293,168.26-61.145,5.117,5.617-74.9,167.776q-3.447,7.106-3.062,13.068l.766,3.812,1.609,3.941,2.578,3.424-5.815,5.295-61.045-67.006,5.814-5.3q10.3,11.712,16.448,11.524l2.851-.433a12.927,12.927,0,0,0,3.487-1.914,33.759,33.759,0,0,0,6.061-8.588l12.187-24.626-41.565-45.624-26.145,10.294a22.079,22.079,0,0,0-7.859,4.635q-7.837,8.223,7.334,24.875l-5.814,5.3-38.781-42.568,5.814-5.3Zm73.567-5.351,34.652,38.036,28.843-62.162Z" fill="#333"/><path d="M2109.056,3707.842a65.632,65.632,0,0,0,8.239,7.46,12.642,12.642,0,0,0,5.159,2.694l3.847.462,3.031-.237a19.2,19.2,0,0,0,5.189-2.023,38.794,38.794,0,0,0,7.7-5.208l91.937-83.758,4.765-5.062q5.694-6.813,5.652-12l-.307-3.506q-1.5-6.391-8.587-14.176l5.814-5.3,65.085,71.442a214.226,214.226,0,0,1,14.806,18.429,66.091,66.091,0,0,1,9.072,18.964,47.792,47.792,0,0,1,1.953,19.86,42.065,42.065,0,0,1-5.668,16.342,48.722,48.722,0,0,1-9.205,11.272,46.931,46.931,0,0,1-12.366,8.2,39.1,39.1,0,0,1-11.671,3.419q-15.771,2.284-30.574-6.047l-8.892-5.6-19.276,87.707q-1.91,8.592.939,14.292l2.633,4.274-5.815,5.3-38.153-41.88,23.331-101.86-4.309-4.73-37.149,33.844a59.006,59.006,0,0,0-10.049,11.138,12.261,12.261,0,0,0-2.29,4.612l-.608,2.9a10.438,10.438,0,0,0,.351,4.639,13.974,13.974,0,0,0,1.874,4.333,44.79,44.79,0,0,0,6.834,9.283l-5.815,5.3-63.289-69.471Zm112.112-8.369q14.19,15.383,23.432,19.585,14.407,6.711,29.39-2.972a74.578,74.578,0,0,0,10.178-7.83l7.023-6.938a50.214,50.214,0,0,0,7.682-10.966q8.277-15.654-7.531-32.81-6.932-7.21-11.826-7.439l-2.089.28a16.329,16.329,0,0,0-6.793,4.025Z" fill="#333"/><path d="M2475.17,3843.685l-42.569,38.782-5.3-5.814q16.529-20.649,16.344-35.9t-17.379-35.109L2318.861,3903.5q-15.741,13.8-5.736,27.947l5.1,5.993-5.814,5.3-63.29-69.47,5.815-5.3,6.569,6.817q11.894,10.083,27.283-4.3l107.408-97.852q-9.087-9.576-15.77-13.945a36.531,36.531,0,0,0-12.891-4.846q-19.516-4.4-41.943,11.163l-5.3-5.814,42.569-38.782Z" fill="#333"/><rect width="28.659" height="75.181" transform="matrix(0.739, -0.673, 0.673, 0.739, 2385.198, 3946.029)" fill="#333"/><path d="M138.251,1765l44.347,48.679,13.018,14.288a207.1,207.1,0,0,1,18.856,24.657q22.506,35.393,7.621,75.465a97.231,97.231,0,0,1-26.017,37.948q-25.713,23.242-58.8,25.524t-60.349-20.125a262,262,0,0,1-29.442-28.358l-7.451-8.178L0,1890.949l5.814-5.3,4.074,3.681q7.8,6.78,13.543,7.048t14.085-6.61l7.569-6.536,74.4-67.779,8.582-8q9.942-8.879,11.928-15.015,3.056-8.914-4.251-18.125l-3.3-4.023ZM73.78,1917.5l-8.671,7.9q-7.08,6.087-6.441,10.646t6.66,10.972q35.89,39.8,98.268-17.032a169.714,169.714,0,0,0,22.784-25.267q28.92-39.511,1.27-69.861-6.033-6.227-10.44-6.808t-10.8,5.064l-6.8,6.194Z" fill="#333"/><path d="M216.332,1966.7a80.733,80.733,0,0,1,15.764-8.232A96.386,96.386,0,0,1,260.28,1951a90.036,90.036,0,0,1,29.843,1.483,100.545,100.545,0,0,1,26.238,10,103.961,103.961,0,0,1,26.663,21.151q27.83,30.544,25.76,69.94t-32.331,67.142q-24.645,22.63-56.516,26.243a83.1,83.1,0,0,1-27.87-1.3q-31.142-6.073-54.48-31.692a105.135,105.135,0,0,1-18.429-27.751q-13.547-29.316-5.991-59.821,6.991-28.547,32.2-51.153a70.537,70.537,0,0,1,10.966-8.547m21.711,44.415a204.516,204.516,0,0,0-24.809,26.21q-33.261,41.478-7.413,70.047a42.653,42.653,0,0,0,12.944,9.756,35.316,35.316,0,0,0,14.831,3.709q28.917,1.063,69.589-35.448,23.46-21.553,34.288-43.319,15.612-31.356-2.861-52.031-16.788-18.428-42.471-11.98-19.471,4.758-40.642,21.7a171.779,171.779,0,0,0-13.456,11.358" fill="#333"/><path d="M478.4,2138.363l-5.814,5.3q-9.445-9.97-16.873-10.5t-17.571,8.523L393.9,2181.987l51.894,2.133,29.3.892q17.619.537,21.769-3.421l1.414-2.01.572-2.145q.246-3.291-4.206-8.97l-7.515-8.843,5.814-5.3,52.966,58.139-5.814,5.3q-12.262-12.271-23.6-16.007-15.888-5.364-42.634-6.419L434.951,2194l-19.837,132.218a13.13,13.13,0,0,0,2.512,10.874l2.04,2.831-5.814,5.3-62.393-68.485,5.815-5.3,6.678,6.539,4.344,3.977q4.431,4.077,7.972,1.032,2.946-2.5,5-14.11l11.9-77.2-9.415-.439L347.78,2224a38.589,38.589,0,0,0-5.956,6.329q-8.795,10.534-1.286,21.549l5.424,7.139-5.814,5.3-63.29-69.47,5.814-5.3q8.8,9.657,15.453,10.627,8.337,1.239,17.316-7.12l92.627-84.386q10.166-9.624,10.185-17.124t-8.958-17.355l5.814-5.3Z" fill="#333"/><path d="M428.264,2347.773a11.123,11.123,0,0,0,3.785,1.78l3.838.652a31.256,31.256,0,0,0,7.012-.618l7.466-2.295,168.26-61.143,5.117,5.616-74.9,167.776q-3.447,7.106-3.062,13.069l.766,3.811,1.609,3.942,2.578,3.423-5.815,5.3-61.045-67.006,5.814-5.3q10.3,11.712,16.449,11.523l2.851-.433a12.9,12.9,0,0,0,3.486-1.914,33.763,33.763,0,0,0,6.061-8.587l12.187-24.627-41.565-45.624-26.145,10.294a22.069,22.069,0,0,0-7.859,4.636q-7.838,8.223,7.335,24.875l-5.815,5.3-38.781-42.569,5.814-5.3Zm73.566-5.35,34.652,38.036,28.843-62.162Z" fill="#333"/><path d="M726.53,2410.726l-20.743,149.633,61.094-55.659q10.051-9.157,10.7-16.958l-.3-3.695a22.768,22.768,0,0,0-1.818-5.557,55.574,55.574,0,0,0-6.268-9.256l5.814-5.3,41.026,45.032-5.814,5.3q-8.088-6.7-13.092-8.63l-4.2-1.044a11.713,11.713,0,0,0-7.826,1.9q-7.539,3.8-10.411,6.781l-116.573,106.2-5.207-5.716,27.782-191.389-80.309,73.164q-15.194,14.2-12.268,24.34l1.5,4.222a41.368,41.368,0,0,0,6.088,9.058l-5.814,5.3-41.025-45.032,5.814-5.3q10.465,10.3,18.894,9.655,7.386-.6,19-10.816l90.458-82.411q3.069-15.235,2.371-22.536l-.694-3.334-1.447-3.371-1.958-2.544,5.815-5.3Z" fill="#333"/><path d="M689.322,2634.324a11.128,11.128,0,0,0,3.785,1.78l3.838.652a31.2,31.2,0,0,0,7.012-.618l7.467-2.295L879.683,2572.7l5.117,5.616-74.9,167.776q-3.447,7.106-3.062,13.069l.766,3.811,1.609,3.942,2.578,3.423-5.815,5.3-61.045-67.006,5.814-5.3q10.3,11.712,16.449,11.523l2.851-.433a12.9,12.9,0,0,0,3.486-1.914,33.762,33.762,0,0,0,6.061-8.587l12.187-24.627-41.565-45.624-26.145,10.294a22.087,22.087,0,0,0-7.859,4.636q-7.838,8.223,7.335,24.875l-5.815,5.3L678.949,2636.2l5.814-5.3Zm73.566-5.35,34.652,38.036,28.843-62.162Z" fill="#333"/><path d="M815.92,2774.87a65.639,65.639,0,0,0,8.239,7.46,12.639,12.639,0,0,0,5.159,2.694l3.847.462,3.031-.237a19.186,19.186,0,0,0,5.189-2.023,38.808,38.808,0,0,0,7.7-5.208l91.937-83.758,4.765-5.062q5.694-6.813,5.653-12l-.308-3.506q-1.5-6.391-8.587-14.176l5.814-5.3,65.085,71.442a214.461,214.461,0,0,1,14.806,18.428,66.081,66.081,0,0,1,9.072,18.965,47.8,47.8,0,0,1,1.953,19.86,42.078,42.078,0,0,1-5.667,16.342,48.722,48.722,0,0,1-9.206,11.272,46.932,46.932,0,0,1-12.366,8.2,39.1,39.1,0,0,1-11.671,3.419q-15.771,2.284-30.574-6.047l-8.892-5.6L941.621,2898.2q-1.909,8.592.939,14.292l2.633,4.274-5.815,5.3-38.153-41.88,23.331-101.86-4.309-4.73L883.1,2807.437a59.01,59.01,0,0,0-10.049,11.138,12.263,12.263,0,0,0-2.29,4.612l-.608,2.9a10.437,10.437,0,0,0,.351,4.639,13.962,13.962,0,0,0,1.874,4.333,44.79,44.79,0,0,0,6.834,9.283l-5.814,5.3-63.29-69.471Zm112.112-8.369q14.19,15.383,23.432,19.585,14.407,6.711,29.39-2.972a74.564,74.564,0,0,0,10.178-7.83l7.023-6.938a50.237,50.237,0,0,0,7.682-10.966q8.277-15.654-7.531-32.81-6.931-7.211-11.826-7.439l-2.089.28a16.33,16.33,0,0,0-6.793,4.025Z" fill="#333"/><path d="M1182.034,2910.713l-42.569,38.782-5.3-5.814q16.529-20.649,16.345-35.9t-17.38-35.109l-107.408,97.852q-15.741,13.8-5.736,27.947l5.1,5.993-5.815,5.3-63.29-69.47,5.815-5.3,6.57,6.817q11.892,10.083,27.282-4.3l107.408-97.852q-9.087-9.576-15.77-13.945a36.533,36.533,0,0,0-12.89-4.846q-19.518-4.4-41.944,11.163l-5.3-5.814,42.569-38.782Z" fill="#333"/><path d="M1189.217,2918.6l44.347,48.679,13.018,14.288a207.108,207.108,0,0,1,18.856,24.657q22.506,35.392,7.621,75.465a97.241,97.241,0,0,1-26.017,37.949q-25.713,23.241-58.8,25.523t-60.35-20.125a261.988,261.988,0,0,1-29.441-28.358L1091,3088.5l-40.038-43.949,5.814-5.3,4.074,3.681q7.8,6.78,13.543,7.048t14.085-6.61l7.569-6.536,74.4-67.779,8.582-8q9.942-8.878,11.928-15.014,3.055-8.916-4.251-18.126l-3.306-4.023Zm-64.471,152.5-8.671,7.9q-7.081,6.087-6.441,10.646t6.66,10.972q35.891,39.8,98.268-17.032a169.753,169.753,0,0,0,22.784-25.266q28.92-39.513,1.27-69.862-6.033-6.227-10.44-6.808t-10.8,5.064l-6.8,6.194Z" fill="#333"/><path d="M1267.3,3120.293a80.782,80.782,0,0,1,15.764-8.231,96.343,96.343,0,0,1,28.184-7.463,90.007,90.007,0,0,1,29.843,1.483,100.586,100.586,0,0,1,26.238,10,103.942,103.942,0,0,1,26.663,21.151q27.829,30.546,25.76,69.94t-32.331,67.142q-24.646,22.63-56.516,26.242a83.1,83.1,0,0,1-27.87-1.3q-31.141-6.074-54.481-31.693a105.123,105.123,0,0,1-18.428-27.751q-13.547-29.314-5.991-59.82,6.992-28.548,32.2-51.153a70.61,70.61,0,0,1,10.966-8.548m21.711,44.416a204.584,204.584,0,0,0-24.809,26.209q-33.261,41.48-7.413,70.048a42.654,42.654,0,0,0,12.944,9.755,35.347,35.347,0,0,0,14.831,3.71q28.917,1.063,69.589-35.449,23.46-21.552,34.288-43.318,15.612-31.356-2.861-52.031-16.788-18.428-42.471-11.98-19.471,4.756-40.642,21.7a171.775,171.775,0,0,0-13.456,11.358" fill="#333"/><path d="M1529.364,3291.961l-5.814,5.3q-9.445-9.97-16.873-10.505t-17.571,8.523l-44.244,40.308,51.894,2.134,29.3.892q17.619.537,21.769-3.421l1.414-2.01.572-2.145q.246-3.291-4.206-8.97l-7.515-8.843,5.814-5.3,52.966,58.139-5.814,5.3q-12.262-12.271-23.6-16.007-15.888-5.364-42.635-6.42l-38.908-1.339-19.837,132.218a13.131,13.131,0,0,0,2.512,10.874l2.04,2.831-5.814,5.3-62.393-68.485,5.815-5.3,6.678,6.539,4.344,3.977q4.431,4.077,7.972,1.031,2.946-2.5,5-14.109l11.9-77.2-9.415-.439-35.968,32.767a38.6,38.6,0,0,0-5.956,6.329q-8.794,10.534-1.286,21.549l5.424,7.139-5.814,5.3-63.29-69.47,5.814-5.3q8.8,9.657,15.453,10.627,8.337,1.239,17.316-7.12l92.627-84.386q10.166-9.624,10.185-17.124t-8.958-17.355l5.814-5.3Z" fill="#333"/><path d="M1479.228,3501.37a11.141,11.141,0,0,0,3.786,1.78l3.838.652a31.2,31.2,0,0,0,7.012-.618l7.466-2.294,168.26-61.144,5.117,5.616-74.9,167.776q-3.447,7.106-3.062,13.069l.766,3.811,1.609,3.942,2.578,3.423-5.815,5.3-61.045-67.006,5.814-5.3q10.3,11.712,16.449,11.523l2.85-.433a12.9,12.9,0,0,0,3.487-1.914,33.748,33.748,0,0,0,6.061-8.587l12.187-24.627-41.565-45.624-26.145,10.294a22.08,22.08,0,0,0-7.859,4.636q-7.837,8.223,7.334,24.875l-5.814,5.3-38.781-42.569,5.814-5.3Zm73.567-5.35,34.652,38.036,28.843-62.162Z" fill="#333"/><path d="M1777.495,3564.323l-20.743,149.633,61.094-55.659q10.052-9.158,10.7-16.958l-.3-3.7a22.774,22.774,0,0,0-1.818-5.557,55.625,55.625,0,0,0-6.268-9.256l5.814-5.3L1867,3662.566l-5.814,5.3q-8.088-6.7-13.092-8.63l-4.2-1.044a11.715,11.715,0,0,0-7.826,1.9q-7.539,3.8-10.412,6.781l-116.572,106.2-5.207-5.716,27.783-191.389-80.31,73.164q-15.194,14.2-12.268,24.34l1.5,4.222a41.37,41.37,0,0,0,6.088,9.058l-5.814,5.3-41.025-45.032,5.814-5.3q10.466,10.3,18.894,9.655,7.386-.6,19-10.816L1734,3558.146q3.069-15.235,2.371-22.536l-.694-3.334-1.447-3.371-1.958-2.544,5.814-5.3Z" fill="#333"/><path d="M1740.287,3787.922a11.127,11.127,0,0,0,3.785,1.78l3.838.652a31.2,31.2,0,0,0,7.012-.618l7.467-2.3,168.259-61.143,5.117,5.616-74.9,167.776q-3.447,7.106-3.062,13.069l.766,3.811,1.609,3.942,2.578,3.423-5.814,5.3-61.046-67.006,5.814-5.3q10.3,11.712,16.449,11.523l2.851-.433a12.908,12.908,0,0,0,3.486-1.914,33.745,33.745,0,0,0,6.061-8.587l12.187-24.627-41.565-45.624-26.145,10.294a22.088,22.088,0,0,0-7.859,4.636q-7.838,8.223,7.335,24.875l-5.815,5.3-38.781-42.569,5.814-5.3Zm73.566-5.35,34.652,38.036,28.843-62.162Z" fill="#333"/><path d="M1866.885,3928.468a65.615,65.615,0,0,0,8.239,7.46,12.642,12.642,0,0,0,5.159,2.694l3.847.462,3.031-.237a19.186,19.186,0,0,0,5.189-2.023,38.826,38.826,0,0,0,7.7-5.208l91.937-83.758,4.765-5.062q5.694-6.813,5.653-12l-.308-3.506q-1.5-6.391-8.587-14.176l5.814-5.3,65.085,71.442a214.06,214.06,0,0,1,14.8,18.429,66.057,66.057,0,0,1,9.073,18.964,47.809,47.809,0,0,1,1.953,19.86,42.069,42.069,0,0,1-5.668,16.342,48.7,48.7,0,0,1-9.205,11.272,46.939,46.939,0,0,1-12.366,8.2,39.091,39.091,0,0,1-11.671,3.419q-15.771,2.284-30.574-6.047l-8.892-5.6-19.276,87.707q-1.91,8.592.939,14.292l2.633,4.274-5.815,5.3-38.153-41.88,23.331-101.86-4.309-4.73-37.149,33.844a59.01,59.01,0,0,0-10.049,11.138,12.261,12.261,0,0,0-2.29,4.612l-.608,2.9a10.421,10.421,0,0,0,.351,4.639,13.965,13.965,0,0,0,1.874,4.333,44.782,44.782,0,0,0,6.834,9.283l-5.814,5.3-63.29-69.471ZM1979,3920.1q14.19,15.382,23.432,19.585,14.408,6.711,29.39-2.972a74.558,74.558,0,0,0,10.178-7.83l7.023-6.938a50.215,50.215,0,0,0,7.682-10.966q8.277-15.654-7.531-32.81-6.931-7.21-11.826-7.439l-2.089.28a16.329,16.329,0,0,0-6.793,4.025Z" fill="#333"/><path d="M2233,4064.31l-42.569,38.782-5.3-5.814q16.529-20.649,16.345-35.9t-17.38-35.109l-107.408,97.852q-15.741,13.8-5.736,27.947l5.1,5.993-5.815,5.3-63.29-69.47,5.815-5.3,6.569,6.817q11.894,10.083,27.283-4.3l107.408-97.852q-9.087-9.576-15.77-13.945a36.531,36.531,0,0,0-12.891-4.846q-19.516-4.4-41.943,11.163l-5.3-5.814,42.569-38.782Z" fill="#333"/><rect width="28.659" height="75.181" transform="translate(2143.028 4166.654) rotate(-42.334)" fill="#333"/></g></g></svg>