<svg id="Layer_1" data-name="Layer 1" xmlns="http://www.w3.org/2000/svg" viewBox="0 0 1024 1024"><defs><style>.cls-1{fill:#fff;}</style></defs><rect class="cls-1" x="20" y="20" width="984" height="984" rx="96.43"/><path d="M907.57,40A76.51,76.51,0,0,1,984,116.43V907.57A76.51,76.51,0,0,1,907.57,984H116.43A76.51,76.51,0,0,1,40,907.57V116.43A76.51,76.51,0,0,1,116.43,40H907.57m0-40H116.43A116.43,116.43,0,0,0,0,116.43V907.57A116.43,116.43,0,0,0,116.43,1024H907.57A116.43,116.43,0,0,0,1024,907.57V116.43A116.43,116.43,0,0,0,907.57,0Z"/><path d="M127.28,128.36H476.73q68.35,1.11,126.87,10.94,169.52,29.53,249.92,185.39,43.18,84.76,43.2,183.74-.56,142.2-85,248.82T583.91,884.68q-75.46,11.48-167.34,10.93H127.28V863.34l22.42-2.18q42.11-4.93,58.79-21.6t18.87-61l1.09-41V324.69l-.55-48.12q.54-54.69-12.57-77.66-18.6-33.9-66.72-37.19l-21.33-1.09ZM411.65,745.23v48.12q-1.09,38.28,14.49,48.94t51.68,10.12q219.84,1.11,219.84-345.07A696,696,0,0,0,684,368.44Q644.06,171.57,475.64,171.57q-35.56,1.1-49.5,12.85t-14.49,46.75V745.23Z"/></svg>